GSerif01-DisplayRegular03.ufo
<glyph name="one" format="1">
  <advance width="429"/>
  <unicode hex="0031"/>
  <outline>
    <contour>
      <point x="52" y="34" type="line"/>
      <point x="52" y="0" type="line"/>
      <point x="402" y="0" type="line"/>
      <point x="402" y="34" type="line"/>
      <point x="273" y="34" type="line"/>
      <point x="273" y="34" type="line"/>
      <point x="181" y="34" type="line"/>
      <point x="181" y="34" type="line"/>
    </contour>
    <contour>
      <point x="181" y="698" type="line"/>
      <point x="181" y="0" type="line"/>
      <point x="273" y="0" type="line"/>
      <point x="273" y="710" type="line"/>
      <point x="189" y="710" type="line"/>
      <point x="42" y="680" type="line"/>
      <point x="42" y="642" type="line"/>
      <point x="244" y="678" type="line"/>
    </contour>
  </outline>
</glyph>
<glyph name="five" format="1">
  <advance width="606"/>
  <unicode hex="0035"/>
  <outline>
    <contour>
      <point x="129" y="407" type="line"/>
      <point x="180" y="659" type="line"/>
      <point x="161" y="636" type="line"/>
      <point x="514" y="636" type="line"/>
      <point x="514" y="710" type="line"/>
      <point x="152" y="710" type="line"/>
      <point x="91" y="407" type="line"/>
      <point x="91" y="384" type="line"/>
      <point x="214" y="384" type="line" smooth="yes"/>
      <point x="385" y="384"/>
      <point x="465" y="333"/>
      <point x="465" y="208" type="curve" smooth="yes"/>
      <point x="465" y="85"/>
      <point x="396" y="29"/>
      <point x="310" y="29" type="curve" smooth="yes"/>
      <point x="213" y="29"/>
      <point x="150" y="80"/>
      <point x="139" y="205" type="curve"/>
      <point x="41" y="205" type="line"/>
      <point x="56" y="61"/>
      <point x="163" y="-10"/>
      <point x="310" y="-10" type="curve" smooth="yes"/>
      <point x="444" y="-10"/>
      <point x="560" y="66"/>
      <point x="560" y="208" type="curve" smooth="yes"/>
      <point x="560" y="342"/>
      <point x="454" y="423"/>
      <point x="227" y="423" type="curve" smooth="yes"/>
      <point x="112" y="423" type="line"/>
    </contour>
  </outline>
</glyph>
<glyph name="A" format="1">
  <advance width="643"/>
  <unicode hex="0041"/>
  <outline>
    <contour>
      <point x="54" y="0" type="line"/>
      <point x="90" y="0" type="line"/>
      <point x="316" y="710" type="line"/>
      <point x="279" y="710" type="line"/>
    </contour>
    <contour>
      <point x="496" y="0" type="line"/>
      <point x="586" y="0" type="line"/>
      <point x="357" y="710" type="line"/>
      <point x="298" y="710" type="line"/>
      <point x="287" y="663" type="line"/>
    </contour>
    <contour>
      <point x="172" y="285" type="line"/>
      <point x="159" y="253" type="line"/>
      <point x="431" y="253" type="line"/>
      <point x="429" y="285" type="line"/>
    </contour>
    <contour>
      <point x="7" y="0" type="line"/>
      <point x="200" y="0" type="line"/>
      <point x="200" y="24" type="line"/>
      <point x="172" y="24" type="line" smooth="yes"/>
      <point x="121" y="24"/>
      <point x="101" y="34"/>
      <point x="110" y="63" type="curve"/>
      <point x="83" y="91" type="line"/>
      <point x="68" y="45"/>
      <point x="37" y="24"/>
      <point x="9" y="24" type="curve"/>
      <point x="7" y="24" type="line"/>
    </contour>
    <contour>
      <point x="633" y="0" type="line"/>
      <point x="633" y="24" type="line"/>
      <point x="636" y="24" type="line"/>
      <point x="599" y="24"/>
      <point x="577" y="28"/>
      <point x="567" y="59" type="curve"/>
      <point x="485" y="35" type="line"/>
      <point x="487" y="28"/>
      <point x="445" y="24"/>
      <point x="403" y="24" type="curve" smooth="yes"/>
      <point x="387" y="24" type="line"/>
      <point x="387" y="0" type="line"/>
    </contour>
  </outline>
</glyph>
<glyph name="B" format="1">
  <advance width="665"/>
  <unicode hex="0042"/>
  <outline>
    <contour>
      <point x="135" y="0" type="line"/>
      <point x="228" y="0" type="line"/>
      <point x="228" y="710" type="line"/>
      <point x="135" y="710" type="line"/>
    </contour>
    <contour>
      <point x="135" y="650" type="curve"/>
      <point x="183" y="676" type="line"/>
      <point x="325" y="676" type="line" smooth="yes"/>
      <point x="434" y="676"/>
      <point x="478" y="622"/>
      <point x="478" y="529" type="curve" smooth="yes"/>
      <point x="478" y="446"/>
      <point x="439" y="388"/>
      <point x="326" y="388" type="curve" smooth="yes"/>
      <point x="184" y="388" type="line"/>
      <point x="184" y="355" type="line"/>
      <point x="347" y="355" type="line" smooth="yes"/>
      <point x="472" y="355"/>
      <point x="520" y="288"/>
      <point x="520" y="200" type="curve" smooth="yes"/>
      <point x="520" y="93"/>
      <point x="468" y="34"/>
      <point x="347" y="34" type="curve" smooth="yes"/>
      <point x="197" y="34" type="line"/>
      <point x="135" y="60" type="line"/>
      <point x="135" y="31"/>
      <point x="98" y="24"/>
      <point x="55" y="24" type="curve" smooth="yes"/>
      <point x="49" y="24" type="line"/>
      <point x="49" y="0" type="line"/>
      <point x="349" y="0" type="line" smooth="yes"/>
      <point x="521" y="0"/>
      <point x="616" y="76"/>
      <point x="616" y="199" type="curve" smooth="yes"/>
      <point x="616" y="310"/>
      <point x="521" y="382"/>
      <point x="340" y="382" type="curve"/>
      <point x="318" y="366" type="line"/>
      <point x="487" y="366"/>
      <point x="572" y="430"/>
      <point x="572" y="530" type="curve" smooth="yes"/>
      <point x="572" y="640"/>
      <point x="486" y="710"/>
      <point x="326" y="710" type="curve" smooth="yes"/>
      <point x="49" y="710" type="line"/>
      <point x="49" y="686" type="line"/>
      <point x="55" y="686" type="line" smooth="yes"/>
      <point x="97" y="686"/>
      <point x="135" y="679"/>
    </contour>
  </outline>
</glyph>
<glyph name="C" format="1">
  <advance width="804"/>
  <unicode hex="0043"/>
  <outline>
    <contour>
      <point x="418" y="680" type="curve" smooth="yes"/>
      <point x="547" y="680"/>
      <point x="623" y="606"/>
      <point x="652" y="496" type="curve"/>
      <point x="727" y="496" type="line"/>
      <point x="727" y="710" type="line"/>
      <point x="649" y="710" type="line"/>
      <point x="649" y="586" type="line"/>
      <point x="655" y="577"/>
      <point x="659" y="575"/>
      <point x="662" y="577" type="curve"/>
      <point x="627" y="665"/>
      <point x="539" y="720"/>
      <point x="417" y="720" type="curve" smooth="yes"/>
      <point x="221" y="720"/>
      <point x="62" y="569"/>
      <point x="62" y="355" type="curve" smooth="yes"/>
      <point x="62" y="138"/>
      <point x="218" y="-10"/>
      <point x="426" y="-10" type="curve" smooth="yes"/>
      <point x="594" y="-10"/>
      <point x="715" y="91"/>
      <point x="745" y="235" type="curve"/>
      <point x="701" y="235" type="line"/>
      <point x="671" y="112"/>
      <point x="571" y="30"/>
      <point x="432" y="30" type="curve" smooth="yes"/>
      <point x="271" y="30"/>
      <point x="159" y="159"/>
      <point x="159" y="355" type="curve" smooth="yes"/>
      <point x="159" y="551"/>
      <point x="272" y="680"/>
    </contour>
  </outline>
</glyph>
<glyph name="D" format="1">
  <advance width="786"/>
  <unicode hex="0044"/>
  <outline>
    <contour>
      <point x="135" y="0" type="line"/>
      <point x="228" y="0" type="line"/>
      <point x="228" y="710" type="line"/>
      <point x="135" y="710" type="line"/>
    </contour>
    <contour>
      <point x="729" y="357" type="curve" smooth="yes"/>
      <point x="729" y="574"/>
      <point x="577" y="710"/>
      <point x="354" y="710" type="curve" smooth="yes"/>
      <point x="49" y="710" type="line"/>
      <point x="49" y="686" type="line"/>
      <point x="55" y="686" type="line" smooth="yes"/>
      <point x="97" y="686"/>
      <point x="135" y="679"/>
      <point x="135" y="650" type="curve"/>
      <point x="193" y="676" type="line"/>
      <point x="354" y="676" type="line" smooth="yes"/>
      <point x="523" y="676"/>
      <point x="629" y="561"/>
      <point x="629" y="357" type="curve" smooth="yes"/>
      <point x="629" y="154"/>
      <point x="523" y="34"/>
      <point x="354" y="34" type="curve" smooth="yes"/>
      <point x="217" y="34" type="line"/>
      <point x="135" y="60" type="line"/>
      <point x="135" y="31"/>
      <point x="98" y="24"/>
      <point x="55" y="24" type="curve" smooth="yes"/>
      <point x="49" y="24" type="line"/>
      <point x="49" y="0" type="line"/>
      <point x="354" y="0" type="line" smooth="yes"/>
      <point x="577" y="0"/>
      <point x="729" y="141"/>
    </contour>
  </outline>
</glyph>
<glyph name="E" format="1">
  <advance width="623"/>
  <unicode hex="0045"/>
  <outline>
    <contour>
      <point x="135" y="0" type="line"/>
      <point x="228" y="0" type="line"/>
      <point x="228" y="710" type="line"/>
      <point x="135" y="710" type="line"/>
    </contour>
    <contour>
      <point x="198" y="380" type="line"/>
      <point x="198" y="346" type="line"/>
      <point x="439" y="346" type="line"/>
      <point x="439" y="380" type="line"/>
    </contour>
    <contour>
      <point x="546" y="710" type="line"/>
      <point x="49" y="710" type="line"/>
      <point x="49" y="686" type="line"/>
      <point x="55" y="686" type="line" smooth="yes"/>
      <point x="97" y="686"/>
      <point x="135" y="679"/>
      <point x="135" y="650" type="curve"/>
      <point x="198" y="676" type="line"/>
      <point x="375" y="676" type="line" smooth="yes"/>
      <point x="461" y="676"/>
      <point x="493" y="662"/>
      <point x="502" y="620" type="curve" smooth="yes"/>
      <point x="521" y="529" type="line"/>
      <point x="546" y="529" type="line"/>
    </contour>
    <contour>
      <point x="566" y="206" type="line"/>
      <point x="539" y="206" type="line"/>
      <point x="520" y="93" type="line" smooth="yes"/>
      <point x="512" y="48"/>
      <point x="479" y="34"/>
      <point x="393" y="34" type="curve"/>
      <point x="217" y="34" type="line"/>
      <point x="135" y="60" type="line"/>
      <point x="135" y="31"/>
      <point x="98" y="24"/>
      <point x="55" y="24" type="curve" smooth="yes"/>
      <point x="49" y="24" type="line"/>
      <point x="49" y="0" type="line"/>
      <point x="566" y="0" type="line"/>
    </contour>
  </outline>
</glyph>
<glyph name="F" format="1">
  <advance width="586"/>
  <unicode hex="0046"/>
  <outline>
    <contour>
      <point x="138" y="0" type="line"/>
      <point x="231" y="0" type="line"/>
      <point x="231" y="710" type="line"/>
      <point x="138" y="710" type="line"/>
    </contour>
    <contour>
      <point x="201" y="370" type="line"/>
      <point x="201" y="336" type="line"/>
      <point x="440" y="336" type="line"/>
      <point x="440" y="370" type="line"/>
    </contour>
    <contour>
      <point x="201" y="676" type="line"/>
      <point x="365" y="676" type="line" smooth="yes"/>
      <point x="451" y="676"/>
      <point x="484" y="662"/>
      <point x="492" y="620" type="curve" smooth="yes"/>
      <point x="509" y="529" type="line"/>
      <point x="537" y="529" type="line"/>
      <point x="537" y="710" type="line"/>
      <point x="52" y="710" type="line"/>
      <point x="52" y="686" type="line"/>
      <point x="58" y="686" type="line" smooth="yes"/>
      <point x="100" y="686"/>
      <point x="138" y="679"/>
      <point x="138" y="650" type="curve"/>
    </contour>
    <contour>
      <point x="138" y="60" type="line"/>
      <point x="138" y="31"/>
      <point x="101" y="24"/>
      <point x="58" y="24" type="curve" smooth="yes"/>
      <point x="52" y="24" type="line"/>
      <point x="52" y="0" type="line"/>
      <point x="334" y="0" type="line"/>
      <point x="334" y="24" type="line"/>
      <point x="316" y="24" type="line" smooth="yes"/>
      <point x="277.5263157894737" y="24"/>
      <point x="231.0" y="27.0"/>
      <point x="231" y="34" type="curve"/>
    </contour>
  </outline>
</glyph>
<glyph name="G" format="1">
  <advance width="823"/>
  <unicode hex="0047"/>
  <outline>
    <contour>
      <point x="159" y="355" type="curve" smooth="yes"/>
      <point x="159" y="551"/>
      <point x="271" y="680"/>
      <point x="430" y="680" type="curve" smooth="yes"/>
      <point x="565" y="680"/>
      <point x="651" y="607"/>
      <point x="679" y="497" type="curve"/>
      <point x="754" y="497" type="line"/>
      <point x="754" y="710" type="line"/>
      <point x="676" y="710" type="line"/>
      <point x="676" y="587" type="line"/>
      <point x="681" y="577"/>
      <point x="686" y="575"/>
      <point x="689" y="576" type="curve"/>
      <point x="655" y="659"/>
      <point x="555" y="720"/>
      <point x="426" y="720" type="curve" smooth="yes"/>
      <point x="221" y="720"/>
      <point x="62" y="569"/>
      <point x="62" y="355" type="curve" smooth="yes"/>
      <point x="62" y="137"/>
      <point x="211" y="-10"/>
      <point x="415" y="-10" type="curve" smooth="yes"/>
      <point x="585" y="-10"/>
      <point x="684" y="108"/>
      <point x="691" y="291" type="curve"/>
      <point x="687" y="316"/>
      <point x="678" y="280"/>
      <point x="669" y="256" type="curve"/>
      <point x="669" y="0" type="line"/>
      <point x="754" y="0" type="line"/>
      <point x="754" y="353" type="line"/>
      <point x="420" y="353" type="line"/>
      <point x="420" y="316" type="line"/>
      <point x="703" y="316" type="line"/>
      <point x="699" y="327"/>
      <point x="668" y="335"/>
      <point x="661" y="335" type="curve"/>
      <point x="661" y="322" type="line" smooth="yes"/>
      <point x="661" y="140"/>
      <point x="571" y="29"/>
      <point x="416" y="29" type="curve" smooth="yes"/>
      <point x="262" y="29"/>
      <point x="159" y="153"/>
    </contour>
  </outline>
</glyph>
<glyph name="H" format="1">
  <advance width="783"/>
  <unicode hex="0048"/>
  <outline>
    <contour>
      <point x="135" y="0" type="line"/>
      <point x="228" y="0" type="line"/>
      <point x="228" y="710" type="line"/>
      <point x="135" y="710" type="line"/>
    </contour>
    <contour>
      <point x="49" y="24" type="line"/>
      <point x="49" y="0" type="line"/>
      <point x="314" y="0" type="line"/>
      <point x="314" y="24" type="line"/>
      <point x="305" y="24" type="line" smooth="yes"/>
      <point x="271" y="24"/>
      <point x="228" y="27"/>
      <point x="228" y="34" type="curve"/>
      <point x="135" y="60" type="line"/>
      <point x="135" y="31"/>
      <point x="98" y="24"/>
      <point x="55" y="24" type="curve" smooth="yes"/>
    </contour>
    <contour>
      <point x="49" y="710" type="line"/>
      <point x="49" y="686" type="line"/>
      <point x="55" y="686" type="line" smooth="yes"/>
      <point x="97" y="686"/>
      <point x="135" y="679"/>
      <point x="135" y="650" type="curve"/>
      <point x="228" y="676" type="line"/>
      <point x="228" y="683"/>
      <point x="271" y="686"/>
      <point x="305" y="686" type="curve" smooth="yes"/>
      <point x="314" y="686" type="line"/>
      <point x="314" y="710" type="line"/>
    </contour>
    <contour>
      <point x="555" y="0" type="line"/>
      <point x="648" y="0" type="line"/>
      <point x="648" y="710" type="line"/>
      <point x="555" y="710" type="line"/>
    </contour>
    <contour>
      <point x="469" y="24" type="line"/>
      <point x="469" y="0" type="line"/>
      <point x="734" y="0" type="line"/>
      <point x="734" y="24" type="line"/>
      <point x="728" y="24" type="line" smooth="yes"/>
      <point x="685" y="24"/>
      <point x="648" y="31"/>
      <point x="648" y="60" type="curve"/>
      <point x="555" y="34" type="line"/>
      <point x="555" y="27"/>
      <point x="512" y="24"/>
      <point x="478" y="24" type="curve" smooth="yes"/>
    </contour>
    <contour>
      <point x="469" y="710" type="line"/>
      <point x="469" y="686" type="line"/>
      <point x="478" y="686" type="line" smooth="yes"/>
      <point x="512" y="686"/>
      <point x="555" y="683"/>
      <point x="555" y="676" type="curve"/>
      <point x="648" y="650" type="line"/>
      <point x="648" y="679"/>
      <point x="686" y="686"/>
      <point x="728" y="686" type="curve" smooth="yes"/>
      <point x="734" y="686" type="line"/>
      <point x="734" y="710" type="line"/>
    </contour>
    <contour>
      <point x="196" y="383" type="line"/>
      <point x="196" y="349" type="line"/>
      <point x="587" y="349" type="line"/>
      <point x="587" y="383" type="line"/>
    </contour>
  </outline>
</glyph>
<glyph name="I" format="1">
  <advance width="369"/>
  <unicode hex="0049"/>
  <outline>
    <contour>
      <point x="138" y="0" type="line"/>
      <point x="231" y="0" type="line"/>
      <point x="231" y="710" type="line"/>
      <point x="138" y="710" type="line"/>
    </contour>
    <contour>
      <point x="231" y="650" type="line"/>
      <point x="231" y="679"/>
      <point x="269" y="686"/>
      <point x="311" y="686" type="curve" smooth="yes"/>
      <point x="317" y="686" type="line"/>
      <point x="317" y="710" type="line"/>
      <point x="52" y="710" type="line"/>
      <point x="52" y="686" type="line"/>
      <point x="58" y="686" type="line" smooth="yes"/>
      <point x="100" y="686"/>
      <point x="138" y="679"/>
      <point x="138" y="650" type="curve"/>
    </contour>
    <contour>
      <point x="231" y="60" type="curve"/>
      <point x="138" y="60" type="line"/>
      <point x="138" y="31"/>
      <point x="100" y="24"/>
      <point x="58" y="24" type="curve" smooth="yes"/>
      <point x="52" y="24" type="line"/>
      <point x="52" y="0" type="line"/>
      <point x="317" y="0" type="line"/>
      <point x="317" y="24" type="line"/>
      <point x="311" y="24" type="line" smooth="yes"/>
      <point x="269" y="24"/>
      <point x="231" y="31"/>
    </contour>
  </outline>
</glyph>
<glyph name="J" format="1">
  <advance width="504"/>
  <unicode hex="004A"/>
  <outline>
    <contour>
      <point x="379" y="650" type="line"/>
      <point x="379" y="679"/>
      <point x="417" y="686"/>
      <point x="459" y="686" type="curve" smooth="yes"/>
      <point x="465" y="686" type="line"/>
      <point x="465" y="710" type="line"/>
      <point x="200" y="710" type="line"/>
      <point x="200" y="686" type="line"/>
      <point x="206" y="686" type="line" smooth="yes"/>
      <point x="248" y="686"/>
      <point x="286" y="679"/>
      <point x="286" y="650" type="curve"/>
    </contour>
    <contour>
      <point x="39" y="12" type="line"/>
      <point x="75" y="-2"/>
      <point x="112" y="-10"/>
      <point x="165" y="-10" type="curve" smooth="yes"/>
      <point x="292" y="-10"/>
      <point x="379" y="58.0"/>
      <point x="379" y="247" type="curve" smooth="yes"/>
      <point x="379" y="710" type="line"/>
      <point x="286" y="710" type="line"/>
      <point x="286" y="247" type="line" smooth="yes"/>
      <point x="286" y="68.0"/>
      <point x="241" y="24"/>
      <point x="167" y="24" type="curve" smooth="yes"/>
      <point x="121" y="24"/>
      <point x="81" y="35"/>
      <point x="39" y="57" type="curve"/>
    </contour>
  </outline>
</glyph>
<glyph name="K" format="1">
  <advance width="727"/>
  <unicode hex="004B"/>
  <outline>
    <contour>
      <point x="437" y="34" type="line"/>
      <point x="437" y="0" type="line"/>
      <point x="718" y="0" type="line"/>
      <point x="718" y="34" type="line"/>
      <point x="643" y="34" type="line"/>
      <point x="643" y="34" type="line"/>
      <point x="526" y="34" type="line"/>
      <point x="526" y="34" type="line"/>
    </contour>
    <contour>
      <point x="438" y="710" type="line"/>
      <point x="438" y="676" type="line"/>
      <point x="554" y="676" type="line"/>
      <point x="554" y="676" type="line"/>
      <point x="600" y="676" type="line"/>
      <point x="600" y="676" type="line"/>
      <point x="681" y="676" type="line"/>
      <point x="681" y="710" type="line"/>
    </contour>
    <contour>
      <point x="555" y="0" type="line"/>
      <point x="669" y="3" type="line"/>
      <point x="330" y="406" type="line"/>
      <point x="301" y="355" type="line"/>
      <point x="628" y="707" type="line"/>
      <point x="585" y="710" type="line"/>
      <point x="260" y="361" type="line"/>
      <point x="260" y="352" type="line"/>
    </contour>
    <contour>
      <point x="135" y="0" type="line"/>
      <point x="228" y="0" type="line"/>
      <point x="228" y="710" type="line"/>
      <point x="135" y="710" type="line"/>
    </contour>
    <contour>
      <point x="49" y="24" type="line"/>
      <point x="49" y="0" type="line"/>
      <point x="314" y="0" type="line"/>
      <point x="314" y="24" type="line"/>
      <point x="305" y="24" type="line" smooth="yes"/>
      <point x="271" y="24"/>
      <point x="228" y="27"/>
      <point x="228" y="34" type="curve"/>
      <point x="135" y="60" type="line"/>
      <point x="135" y="31"/>
      <point x="98" y="24"/>
      <point x="55" y="24" type="curve" smooth="yes"/>
    </contour>
    <contour>
      <point x="49" y="710" type="line"/>
      <point x="49" y="686" type="line"/>
      <point x="55" y="686" type="line" smooth="yes"/>
      <point x="97" y="686"/>
      <point x="135" y="679"/>
      <point x="135" y="650" type="curve"/>
      <point x="228" y="676" type="line"/>
      <point x="228" y="683"/>
      <point x="271" y="686"/>
      <point x="305" y="686" type="curve" smooth="yes"/>
      <point x="314" y="686" type="line"/>
      <point x="314" y="710" type="line"/>
    </contour>
  </outline>
</glyph>
<glyph name="L" format="1">
  <advance width="599"/>
  <unicode hex="004C"/>
  <outline>
    <contour>
      <point x="138" y="0" type="line"/>
      <point x="231" y="0" type="line"/>
      <point x="231" y="710" type="line"/>
      <point x="138" y="710" type="line"/>
    </contour>
    <contour>
      <point x="138" y="60" type="line"/>
      <point x="138" y="31"/>
      <point x="101" y="24"/>
      <point x="58" y="24" type="curve" smooth="yes"/>
      <point x="52" y="24" type="line"/>
      <point x="52" y="0" type="line"/>
      <point x="553" y="0" type="line"/>
      <point x="553" y="222" type="line"/>
      <point x="526" y="222" type="line"/>
      <point x="507" y="93" type="line" smooth="yes"/>
      <point x="500" y="48"/>
      <point x="466" y="34"/>
      <point x="380" y="34" type="curve" smooth="yes"/>
      <point x="186" y="34" type="line"/>
    </contour>
    <contour>
      <point x="52" y="710" type="line"/>
      <point x="52" y="686" type="line"/>
      <point x="58" y="686" type="line" smooth="yes"/>
      <point x="100" y="686"/>
      <point x="138" y="679"/>
      <point x="138" y="650" type="curve"/>
      <point x="231" y="676" type="line"/>
      <point x="231" y="683"/>
      <point x="274" y="686"/>
      <point x="308" y="686" type="curve" smooth="yes"/>
      <point x="317" y="686" type="line"/>
      <point x="317" y="710" type="line"/>
    </contour>
  </outline>
</glyph>
<glyph name="M" format="1">
  <advance width="923"/>
  <unicode hex="004D"/>
  <outline>
    <contour>
      <point x="52" y="24" type="line"/>
      <point x="52" y="0" type="line"/>
      <point x="268" y="0" type="line"/>
      <point x="268" y="24" type="line"/>
      <point x="252" y="24" type="line" smooth="yes"/>
      <point x="209" y="24"/>
      <point x="178" y="28"/>
      <point x="178" y="56" type="curve"/>
      <point x="138" y="86" type="line"/>
      <point x="138" y="40"/>
      <point x="101" y="24"/>
      <point x="63" y="24" type="curve" smooth="yes"/>
    </contour>
    <contour>
      <point x="785" y="650" type="line"/>
      <point x="785" y="679"/>
      <point x="823" y="686"/>
      <point x="865" y="686" type="curve" smooth="yes"/>
      <point x="871" y="686" type="line"/>
      <point x="871" y="710" type="line"/>
      <point x="659" y="710" type="line"/>
      <point x="441" y="29" type="line"/>
      <point x="472" y="56" type="line"/>
      <point x="268" y="710" type="line"/>
      <point x="52" y="710" type="line"/>
      <point x="52" y="686" type="line"/>
      <point x="63" y="686" type="line" smooth="yes"/>
      <point x="101" y="686"/>
      <point x="138" y="679"/>
      <point x="138" y="650" type="curve" smooth="yes"/>
      <point x="138" y="0" type="line"/>
      <point x="178" y="0" type="line"/>
      <point x="178" y="703" type="line"/>
      <point x="173" y="691" type="line"/>
      <point x="403" y="-2" type="line"/>
      <point x="467" y="-2" type="line"/>
      <point x="698" y="696" type="line"/>
      <point x="692" y="703" type="line"/>
      <point x="692" y="0" type="line"/>
      <point x="785" y="0" type="line"/>
    </contour>
    <contour>
      <point x="785" y="60" type="curve"/>
      <point x="692" y="34" type="line"/>
      <point x="692" y="27"/>
      <point x="648" y="24"/>
      <point x="615" y="24" type="curve" smooth="yes"/>
      <point x="606" y="24" type="line"/>
      <point x="606" y="0" type="line"/>
      <point x="871" y="0" type="line"/>
      <point x="871" y="24" type="line"/>
      <point x="865" y="24" type="line" smooth="yes"/>
      <point x="822" y="24"/>
      <point x="785" y="31"/>
    </contour>
  </outline>
</glyph>
<glyph name="N" format="1">
  <advance width="747"/>
  <unicode hex="004E"/>
  <outline>
    <contour>
      <point x="249" y="710" type="line"/>
      <point x="52" y="710" type="line"/>
      <point x="52" y="686" type="line"/>
      <point x="63" y="686" type="line" smooth="yes"/>
      <point x="98" y="686"/>
      <point x="138" y="679"/>
      <point x="138" y="650" type="curve" smooth="yes"/>
      <point x="138" y="0" type="line"/>
      <point x="178" y="0" type="line"/>
      <point x="178" y="698" type="line"/>
      <point x="166" y="686" type="line"/>
      <point x="536" y="0" type="line"/>
      <point x="609" y="0" type="line"/>
      <point x="609" y="710" type="line"/>
      <point x="569" y="710" type="line"/>
      <point x="569" y="65" type="line"/>
      <point x="594" y="69" type="line"/>
    </contour>
    <contour>
      <point x="52" y="24" type="line"/>
      <point x="52" y="0" type="line"/>
      <point x="278" y="0" type="line"/>
      <point x="278" y="24" type="line"/>
      <point x="252" y="24" type="line" smooth="yes"/>
      <point x="209" y="24"/>
      <point x="178" y="28"/>
      <point x="178" y="56" type="curve"/>
      <point x="138" y="86" type="line"/>
      <point x="138" y="40"/>
      <point x="101" y="24"/>
      <point x="63" y="24" type="curve" smooth="yes"/>
    </contour>
    <contour>
      <point x="695" y="686" type="line"/>
      <point x="695" y="710" type="line"/>
      <point x="469" y="710" type="line"/>
      <point x="469" y="686" type="line"/>
      <point x="495" y="686" type="line" smooth="yes"/>
      <point x="538" y="686"/>
      <point x="569" y="682"/>
      <point x="569" y="654" type="curve"/>
      <point x="609" y="624" type="line"/>
      <point x="609" y="670"/>
      <point x="646" y="686"/>
      <point x="684" y="686" type="curve" smooth="yes"/>
    </contour>
  </outline>
</glyph>
<glyph name="O" format="1">
  <advance width="819"/>
  <unicode hex="004F"/>
  <outline>
    <contour>
      <point x="409" y="-10" type="curve" smooth="yes"/>
      <point x="603" y="-10"/>
      <point x="759" y="139"/>
      <point x="759" y="355" type="curve" smooth="yes"/>
      <point x="759" y="572"/>
      <point x="603" y="720"/>
      <point x="409" y="720" type="curve" smooth="yes"/>
      <point x="215" y="720"/>
      <point x="60" y="572"/>
      <point x="60" y="355" type="curve" smooth="yes"/>
      <point x="60" y="139"/>
      <point x="215" y="-10"/>
    </contour>
    <contour>
      <point x="409" y="24" type="curve" smooth="yes"/>
      <point x="265" y="24"/>
      <point x="160" y="152"/>
      <point x="160" y="355" type="curve" smooth="yes"/>
      <point x="160" y="558"/>
      <point x="265" y="686"/>
      <point x="409" y="686" type="curve" smooth="yes"/>
      <point x="555" y="686"/>
      <point x="659" y="558"/>
      <point x="659" y="355" type="curve" smooth="yes"/>
      <point x="659" y="152"/>
      <point x="555" y="24"/>
    </contour>
  </outline>
</glyph>
<glyph name="P" format="1">
  <advance width="630"/>
  <unicode hex="0050"/>
  <outline>
    <contour>
      <point x="135" y="0" type="line"/>
      <point x="228" y="0" type="line"/>
      <point x="228" y="710" type="line"/>
      <point x="135" y="710" type="line"/>
    </contour>
    <contour>
      <point x="183" y="676" type="line"/>
      <point x="331" y="676" type="line" smooth="yes"/>
      <point x="436" y="676"/>
      <point x="492" y="620"/>
      <point x="492" y="510" type="curve"/>
      <point x="492" y="402"/>
      <point x="436" y="338"/>
      <point x="326" y="338" type="curve" smooth="yes"/>
      <point x="184" y="338" type="line"/>
      <point x="184" y="305" type="line"/>
      <point x="328" y="305" type="line" smooth="yes"/>
      <point x="486" y="305"/>
      <point x="589" y="384"/>
      <point x="589" y="511" type="curve"/>
      <point x="589" y="638"/>
      <point x="491" y="710"/>
      <point x="333" y="710" type="curve" smooth="yes"/>
      <point x="49" y="710" type="line"/>
      <point x="49" y="686" type="line"/>
      <point x="55" y="686" type="line" smooth="yes"/>
      <point x="97" y="686"/>
      <point x="135" y="679"/>
      <point x="135" y="650" type="curve"/>
    </contour>
    <contour>
      <point x="331" y="0" type="line"/>
      <point x="331" y="24" type="line"/>
      <point x="313" y="24" type="line" smooth="yes"/>
      <point x="275" y="24"/>
      <point x="228" y="27"/>
      <point x="228" y="50" type="curve"/>
      <point x="135" y="60" type="line"/>
      <point x="135" y="31"/>
      <point x="98" y="24"/>
      <point x="55" y="24" type="curve" smooth="yes"/>
      <point x="49" y="24" type="line"/>
      <point x="49" y="0" type="line"/>
    </contour>
  </outline>
</glyph>
<glyph name="R" format="1">
  <advance width="676"/>
  <unicode hex="0052"/>
  <outline>
    <contour>
      <point x="148" y="0" type="line"/>
      <point x="241" y="0" type="line"/>
      <point x="241" y="710" type="line"/>
      <point x="148" y="710" type="line"/>
    </contour>
    <contour>
      <point x="339" y="323" type="line"/>
      <point x="503" y="0" type="line"/>
      <point x="603" y="0" type="line"/>
      <point x="600" y="20" type="line"/>
      <point x="427" y="338" type="line"/>
    </contour>
    <contour>
      <point x="656" y="0" type="line"/>
      <point x="656" y="24" type="line"/>
      <point x="653" y="24" type="line" smooth="yes"/>
      <point x="615" y="24"/>
      <point x="595" y="29"/>
      <point x="576" y="64" type="curve"/>
      <point x="567" y="0" type="line"/>
    </contour>
    <contour>
      <point x="195" y="676" type="line"/>
      <point x="318" y="676" type="line" smooth="yes"/>
      <point x="427" y="676"/>
      <point x="481" y="611"/>
      <point x="481" y="511" type="curve" smooth="yes"/>
      <point x="481" y="408"/>
      <point x="433" y="347"/>
      <point x="314" y="347" type="curve" smooth="yes"/>
      <point x="197" y="347" type="line"/>
      <point x="197" y="314" type="line"/>
      <point x="313" y="314" type="line" smooth="yes"/>
      <point x="474" y="314"/>
      <point x="578" y="391"/>
      <point x="578" y="511" type="curve" smooth="yes"/>
      <point x="578" y="629"/>
      <point x="481" y="710"/>
      <point x="320" y="710" type="curve" smooth="yes"/>
      <point x="62" y="710" type="line"/>
      <point x="62" y="686" type="line"/>
      <point x="68" y="686" type="line" smooth="yes"/>
      <point x="110" y="686"/>
      <point x="148" y="679"/>
      <point x="148" y="650" type="curve"/>
    </contour>
    <contour>
      <point x="148" y="60" type="line"/>
      <point x="148" y="31"/>
      <point x="111" y="24"/>
      <point x="68" y="24" type="curve" smooth="yes"/>
      <point x="62" y="24" type="line"/>
      <point x="62" y="0" type="line"/>
      <point x="334" y="0" type="line"/>
      <point x="334" y="24" type="line"/>
      <point x="323" y="24" type="line" smooth="yes"/>
      <point x="285" y="24"/>
      <point x="241" y="27"/>
      <point x="241" y="34" type="curve"/>
    </contour>
  </outline>
</glyph>
<glyph name="T" format="1">
  <advance width="693"/>
  <unicode hex="0054"/>
  <outline>
    <contour>
      <point x="300" y="0" type="line"/>
      <point x="393" y="0" type="line"/>
      <point x="393" y="710" type="line"/>
      <point x="300" y="710" type="line"/>
    </contour>
    <contour>
      <point x="486" y="676" type="line" smooth="yes"/>
      <point x="572" y="676"/>
      <point x="604" y="662"/>
      <point x="613" y="620" type="curve" smooth="yes"/>
      <point x="632" y="529" type="line"/>
      <point x="657" y="529" type="line"/>
      <point x="657" y="710" type="line"/>
      <point x="36" y="710" type="line"/>
      <point x="36" y="529" type="line"/>
      <point x="61" y="529" type="line"/>
      <point x="80" y="620" type="line" smooth="yes"/>
      <point x="89" y="662"/>
      <point x="121" y="676"/>
      <point x="207" y="676" type="curve"/>
    </contour>
    <contour>
      <point x="393" y="60" type="curve"/>
      <point x="300" y="60" type="line"/>
      <point x="300" y="31"/>
      <point x="262" y="24"/>
      <point x="220" y="24" type="curve" smooth="yes"/>
      <point x="204" y="24" type="line"/>
      <point x="204" y="0" type="line"/>
      <point x="489" y="0" type="line"/>
      <point x="489" y="24" type="line"/>
      <point x="473" y="24" type="line" smooth="yes"/>
      <point x="431" y="24"/>
      <point x="393" y="31"/>
    </contour>
  </outline>
</glyph>
<glyph name="U" format="1">
  <advance width="789"/>
  <unicode hex="0055"/>
  <outline>
    <contour>
      <point x="39" y="710" type="line"/>
      <point x="39" y="686" type="line"/>
      <point x="45" y="686" type="line" smooth="yes"/>
      <point x="87" y="686"/>
      <point x="125" y="679"/>
      <point x="125" y="650" type="curve"/>
      <point x="218" y="676" type="line"/>
      <point x="218" y="683"/>
      <point x="261" y="686"/>
      <point x="295" y="686" type="curve" smooth="yes"/>
      <point x="304" y="686" type="line"/>
      <point x="304" y="710" type="line"/>
    </contour>
    <contour>
      <point x="524" y="710" type="line"/>
      <point x="524" y="686" type="line"/>
      <point x="550" y="686" type="line" smooth="yes"/>
      <point x="593" y="686"/>
      <point x="624" y="682"/>
      <point x="624" y="654" type="curve"/>
      <point x="664" y="624" type="line"/>
      <point x="664" y="670"/>
      <point x="701" y="686"/>
      <point x="739" y="686" type="curve" smooth="yes"/>
      <point x="750" y="686" type="line"/>
      <point x="750" y="710" type="line"/>
    </contour>
    <contour>
      <point x="218" y="274" type="curve" smooth="yes"/>
      <point x="218" y="710" type="line"/>
      <point x="125" y="710" type="line"/>
      <point x="125" y="273" type="line" smooth="yes"/>
      <point x="125" y="74"/>
      <point x="242" y="-10"/>
      <point x="403" y="-10" type="curve" smooth="yes"/>
      <point x="548" y="-10"/>
      <point x="664" y="72"/>
      <point x="664" y="281" type="curve" smooth="yes"/>
      <point x="664" y="710" type="line"/>
      <point x="624" y="710" type="line"/>
      <point x="624" y="281" type="line" smooth="yes"/>
      <point x="624" y="107"/>
      <point x="543" y="40"/>
      <point x="424" y="40" type="curve" smooth="yes"/>
      <point x="304" y="40"/>
      <point x="218" y="100"/>
    </contour>
  </outline>
</glyph>
<glyph name="V" format="1">
  <advance width="649"/>
  <unicode hex="0056"/>
  <outline>
    <contour>
      <point x="592" y="710" type="line"/>
      <point x="556" y="710" type="line"/>
      <point x="330" y="0" type="line"/>
      <point x="367" y="0" type="line"/>
    </contour>
    <contour>
      <point x="150" y="710" type="line"/>
      <point x="60" y="710" type="line"/>
      <point x="289" y="0" type="line"/>
      <point x="348" y="0" type="line"/>
      <point x="359" y="47" type="line"/>
    </contour>
    <contour>
      <point x="639" y="710" type="line"/>
      <point x="446" y="710" type="line"/>
      <point x="446" y="686" type="line"/>
      <point x="474" y="686" type="line" smooth="yes"/>
      <point x="525" y="686"/>
      <point x="547" y="682"/>
      <point x="538" y="653" type="curve"/>
      <point x="565" y="625" type="line"/>
      <point x="580" y="671"/>
      <point x="609" y="686"/>
      <point x="637" y="686" type="curve"/>
      <point x="639" y="686" type="line"/>
    </contour>
    <contour>
      <point x="13" y="710" type="line"/>
      <point x="13" y="686" type="line"/>
      <point x="10" y="686" type="line"/>
      <point x="47" y="686"/>
      <point x="69" y="682"/>
      <point x="79" y="651" type="curve"/>
      <point x="161" y="675" type="line"/>
      <point x="159" y="682"/>
      <point x="201" y="686"/>
      <point x="243" y="686" type="curve" smooth="yes"/>
      <point x="259" y="686" type="line"/>
      <point x="259" y="710" type="line"/>
    </contour>
  </outline>
</glyph>
<glyph name="W" format="1">
  <advance width="1102"/>
  <unicode hex="0057"/>
  <outline>
    <contour>
      <point x="176" y="710" type="line"/>
      <point x="86" y="708" type="line"/>
      <point x="292" y="0" type="line"/>
      <point x="367" y="0" type="line"/>
      <point x="367" y="34" type="line"/>
    </contour>
    <contour>
      <point x="21" y="710" type="line"/>
      <point x="21" y="676" type="line"/>
      <point x="95" y="676" type="line"/>
      <point x="95" y="676" type="line"/>
      <point x="186" y="676" type="line"/>
      <point x="186" y="676" type="line"/>
      <point x="295" y="676" type="line"/>
      <point x="295" y="710" type="line"/>
    </contour>
    <contour>
      <point x="975" y="710" type="line"/>
      <point x="771" y="0" type="line"/>
      <point x="810" y="0" type="line"/>
      <point x="1017" y="708" type="line"/>
    </contour>
    <contour>
      <point x="1082" y="710" type="line"/>
      <point x="856" y="710" type="line"/>
      <point x="856" y="676" type="line"/>
      <point x="965" y="676" type="line"/>
      <point x="965" y="676" type="line"/>
      <point x="1007" y="676" type="line"/>
      <point x="1007" y="676" type="line"/>
      <point x="1082" y="676" type="line"/>
    </contour>
    <contour>
      <point x="537" y="666" type="line"/>
      <point x="720" y="0" type="line"/>
      <point x="798" y="0" type="line"/>
      <point x="795" y="32" type="line"/>
      <point x="610" y="710" type="line"/>
      <point x="524" y="710" type="line"/>
      <point x="341" y="0" type="line"/>
      <point x="381" y="0" type="line"/>
      <point x="556" y="689" type="line"/>
    </contour>
  </outline>
</glyph>
<glyph name="X" format="1">
  <advance width="762"/>
  <unicode hex="0058"/>
  <outline>
    <contour>
      <point x="717" y="710" type="line"/>
      <point x="496" y="710" type="line"/>
      <point x="496" y="676" type="line"/>
      <point x="612" y="676" type="line"/>
      <point x="612" y="676" type="line"/>
      <point x="658" y="676" type="line"/>
      <point x="658" y="676" type="line"/>
      <point x="717" y="676" type="line"/>
    </contour>
    <contour>
      <point x="44" y="710" type="line"/>
      <point x="44" y="676" type="line"/>
      <point x="102" y="676" type="line"/>
      <point x="102" y="676" type="line"/>
      <point x="205" y="676" type="line"/>
      <point x="205" y="676" type="line"/>
      <point x="319" y="676" type="line"/>
      <point x="319" y="710" type="line"/>
    </contour>
    <contour>
      <point x="36" y="0" type="line"/>
      <point x="259" y="0" type="line"/>
      <point x="259" y="34" type="line"/>
      <point x="139" y="34" type="line"/>
      <point x="139" y="34" type="line"/>
      <point x="95" y="34" type="line"/>
      <point x="95" y="34" type="line"/>
      <point x="36" y="34" type="line"/>
    </contour>
    <contour>
      <point x="726" y="0" type="line"/>
      <point x="726" y="34" type="line"/>
      <point x="667" y="34" type="line"/>
      <point x="667" y="34" type="line"/>
      <point x="562" y="34" type="line"/>
      <point x="562" y="34" type="line"/>
      <point x="449" y="34" type="line"/>
      <point x="449" y="0" type="line"/>
    </contour>
    <contour>
      <point x="78" y="707" type="line"/>
      <point x="344" y="335" type="line"/>
      <point x="348" y="333" type="line"/>
      <point x="588" y="0" type="line"/>
      <point x="690" y="3" type="line"/>
      <point x="418" y="382" type="line"/>
      <point x="415" y="384" type="line"/>
      <point x="180" y="710" type="line"/>
    </contour>
    <contour>
      <point x="351" y="370" type="line"/>
      <point x="71" y="3" type="line"/>
      <point x="113" y="0" type="line"/>
      <point x="373" y="343" type="line"/>
    </contour>
    <contour>
      <point x="415" y="351" type="line"/>
      <point x="683" y="708" type="line"/>
      <point x="639" y="710" type="line"/>
      <point x="391" y="376" type="line"/>
    </contour>
  </outline>
</glyph>
<glyph name="Y" format="1">
  <advance width="704"/>
  <unicode hex="0059"/>
  <outline>
    <contour>
      <point x="682" y="710" type="line"/>
      <point x="479" y="710" type="line"/>
      <point x="479" y="676" type="line"/>
      <point x="574" y="676" type="line"/>
      <point x="574" y="676" type="line"/>
      <point x="615" y="676" type="line"/>
      <point x="615" y="676" type="line"/>
      <point x="682" y="676" type="line"/>
    </contour>
    <contour>
      <point x="22" y="710" type="line"/>
      <point x="22" y="676" type="line"/>
      <point x="85" y="676" type="line"/>
      <point x="85" y="676" type="line"/>
      <point x="179" y="676" type="line"/>
      <point x="179" y="676" type="line"/>
      <point x="283" y="676" type="line"/>
      <point x="283" y="710" type="line"/>
    </contour>
    <contour>
      <point x="313" y="0" type="line"/>
      <point x="406" y="0" type="line"/>
      <point x="406" y="319" type="line"/>
      <point x="313" y="319" type="line"/>
    </contour>
    <contour>
      <point x="214" y="34" type="line"/>
      <point x="214" y="0" type="line"/>
      <point x="505" y="0" type="line"/>
      <point x="505" y="34" type="line"/>
      <point x="406" y="34" type="line"/>
      <point x="406" y="34" type="line"/>
      <point x="313" y="34" type="line"/>
      <point x="313" y="34" type="line"/>
    </contour>
    <contour>
      <point x="634" y="708" type="line"/>
      <point x="593" y="710" type="line"/>
      <point x="363" y="300" type="line"/>
      <point x="396" y="325" type="line"/>
      <point x="158" y="710" type="line"/>
      <point x="66" y="708" type="line"/>
      <point x="334" y="271" type="line"/>
      <point x="385" y="269" type="line"/>
    </contour>
  </outline>
</glyph>
<glyph name="Z" format="1">
  <advance width="632"/>
  <unicode hex="005A"/>
  <outline>
    <contour>
      <point x="56" y="0" type="line"/>
      <point x="56" y="46" type="line"/>
      <point x="478" y="687" type="line"/>
      <point x="506" y="676" type="line"/>
      <point x="146" y="676" type="line"/>
      <point x="146" y="676" type="line"/>
      <point x="146" y="516" type="line"/>
      <point x="67" y="516" type="line"/>
      <point x="67" y="710" type="line"/>
      <point x="568" y="710" type="line"/>
      <point x="568" y="667" type="line"/>
      <point x="137" y="16" type="line"/>
      <point x="111" y="34" type="line"/>
      <point x="495" y="34" type="line"/>
      <point x="495" y="34" type="line"/>
      <point x="495" y="205" type="line"/>
      <point x="576" y="205" type="line"/>
      <point x="576" y="0" type="line"/>
    </contour>
  </outline>
</glyph>
<glyph name="a" format="1">
  <advance width="562"/>
  <unicode hex="0061"/>
  <outline>
    <contour>
      <point x="405" y="310" type="line"/>
      <point x="176" y="285"/>
      <point x="57" y="238"/>
      <point x="57" y="128" type="curve"/>
      <point x="57" y="42"/>
      <point x="130" y="-11"/>
      <point x="220" y="-11" type="curve" smooth="yes"/>
      <point x="306" y="-11"/>
      <point x="371" y="38"/>
      <point x="402" y="113" type="curve"/>
      <point x="423" y="139"/>
      <point x="390" y="131"/>
      <point x="382" y="129" type="curve"/>
      <point x="357" y="72"/>
      <point x="307" y="26"/>
      <point x="246" y="26" type="curve" smooth="yes"/>
      <point x="187" y="26"/>
      <point x="150" y="64"/>
      <point x="150" y="128" type="curve"/>
      <point x="150" y="214"/>
      <point x="228" y="260"/>
      <point x="403" y="277" type="curve"/>
    </contour>
    <contour>
      <point x="273" y="550" type="curve" smooth="yes"/>
      <point x="187" y="550"/>
      <point x="118" y="508"/>
      <point x="90" y="469" type="curve"/>
      <point x="90" y="388" type="line"/>
      <point x="176" y="388" type="line"/>
      <point x="176" y="502" type="line"/>
      <point x="150" y="502"/>
      <point x="129" y="475"/>
      <point x="130" y="426" type="curve"/>
      <point x="157" y="477"/>
      <point x="196" y="516"/>
      <point x="273" y="516" type="curve" smooth="yes"/>
      <point x="335" y="516"/>
      <point x="376" y="484"/>
      <point x="376" y="377" type="curve" smooth="yes"/>
      <point x="376" y="94" type="line"/>
      <point x="384" y="98" type="line"/>
      <point x="384" y="0" type="line"/>
      <point x="545" y="0" type="line"/>
      <point x="545" y="24" type="line"/>
      <point x="544" y="24" type="line"/>
      <point x="498" y="24"/>
      <point x="464" y="31"/>
      <point x="464" y="60" type="curve" smooth="yes"/>
      <point x="464" y="381" type="line" smooth="yes"/>
      <point x="464" y="511"/>
      <point x="363" y="550"/>
    </contour>
  </outline>
</glyph>
<glyph name="b" format="1">
  <advance width="660"/>
  <unicode hex="0062"/>
  <outline>
    <contour>
      <point x="522" y="272" type="curve" smooth="yes"/>
      <point x="522" y="416"/>
      <point x="466" y="511"/>
      <point x="367" y="511" type="curve" smooth="yes"/>
      <point x="278" y="511"/>
      <point x="217" y="453"/>
      <point x="170" y="351" type="curve"/>
      <point x="142" y="363" type="line"/>
      <point x="206" y="489"/>
      <point x="266" y="550"/>
      <point x="370" y="550" type="curve" smooth="yes"/>
      <point x="516" y="550"/>
      <point x="617" y="438"/>
      <point x="617" y="272" type="curve" smooth="yes"/>
      <point x="617" y="104"/>
      <point x="516" y="-11"/>
      <point x="367" y="-11" type="curve" smooth="yes"/>
      <point x="265" y="-11"/>
      <point x="201" y="39"/>
      <point x="138" y="163" type="curve"/>
      <point x="167" y="172" type="line"/>
      <point x="216" y="72"/>
      <point x="278" y="28"/>
      <point x="364" y="28" type="curve" smooth="yes"/>
      <point x="466" y="28"/>
      <point x="522" y="123"/>
    </contour>
    <contour>
      <point x="104" y="679" type="line" smooth="yes"/>
      <point x="104" y="708"/>
      <point x="80" y="715"/>
      <point x="28" y="724" type="curve" smooth="yes"/>
      <point x="17" y="726" type="line"/>
      <point x="17" y="750" type="line"/>
      <point x="193" y="750" type="line"/>
      <point x="193" y="110" type="line"/>
      <point x="187" y="103" type="line"/>
      <point x="138" y="-8" type="line"/>
      <point x="104" y="-8" type="line"/>
    </contour>
  </outline>
</glyph>
<glyph name="c" format="1">
  <advance width="586"/>
  <unicode hex="0063"/>
  <outline>
    <contour>
      <point x="324" y="-12" type="curve" smooth="yes"/>
      <point x="416" y="-12"/>
      <point x="499" y="30"/>
      <point x="536" y="103" type="curve"/>
      <point x="508" y="123" type="line"/>
      <point x="475" y="64"/>
      <point x="416" y="24"/>
      <point x="331" y="24" type="curve" smooth="yes"/>
      <point x="213" y="24"/>
      <point x="144" y="123"/>
      <point x="144" y="270" type="curve" smooth="yes"/>
      <point x="144" y="415"/>
      <point x="211" y="514"/>
      <point x="318" y="514" type="curve"/>
      <point x="398" y="514"/>
      <point x="447" y="474"/>
      <point x="471" y="420" type="curve"/>
      <point x="479" y="465"/>
      <point x="463" y="492"/>
      <point x="438" y="491" type="curve"/>
      <point x="438" y="377" type="line"/>
      <point x="526" y="377" type="line"/>
      <point x="526" y="455" type="line"/>
      <point x="496" y="505"/>
      <point x="422" y="550"/>
      <point x="318" y="550" type="curve"/>
      <point x="165" y="550"/>
      <point x="50" y="433"/>
      <point x="50" y="270" type="curve" smooth="yes"/>
      <point x="50" y="105"/>
      <point x="167" y="-12"/>
    </contour>
  </outline>
</glyph>
<glyph name="d" format="1">
  <advance width="675"/>
  <unicode hex="0064"/>
  <outline>
    <contour>
      <point x="144" y="266" type="curve" smooth="yes"/>
      <point x="144" y="415"/>
      <point x="200" y="511"/>
      <point x="302" y="511" type="curve" smooth="yes"/>
      <point x="389" y="511"/>
      <point x="450" y="467"/>
      <point x="499" y="367" type="curve"/>
      <point x="528" y="376" type="line"/>
      <point x="465" y="499"/>
      <point x="401" y="550"/>
      <point x="299" y="550" type="curve" smooth="yes"/>
      <point x="150" y="550"/>
      <point x="50" y="435"/>
      <point x="50" y="266" type="curve" smooth="yes"/>
      <point x="50" y="100"/>
      <point x="151" y="-11"/>
      <point x="296" y="-11" type="curve" smooth="yes"/>
      <point x="400" y="-11"/>
      <point x="460" y="50"/>
      <point x="524" y="176" type="curve"/>
      <point x="496" y="188" type="line"/>
      <point x="449" y="86"/>
      <point x="388" y="28"/>
      <point x="299" y="28" type="curve" smooth="yes"/>
      <point x="200" y="28"/>
      <point x="144" y="123"/>
    </contour>
    <contour>
      <point x="474" y="679" type="curve" smooth="yes"/>
      <point x="474" y="111" type="line"/>
      <point x="479" y="119" type="line"/>
      <point x="479" y="0" type="line"/>
      <point x="648" y="0" type="line"/>
      <point x="648" y="24" type="line"/>
      <point x="645" y="24" type="line" smooth="yes"/>
      <point x="598" y="24"/>
      <point x="563" y="31"/>
      <point x="563" y="60" type="curve"/>
      <point x="563" y="750" type="line"/>
      <point x="387" y="750" type="line"/>
      <point x="387" y="726" type="line"/>
      <point x="398" y="724" type="line" smooth="yes"/>
      <point x="450" y="715"/>
      <point x="474" y="708"/>
    </contour>
  </outline>
</glyph>
<glyph name="e" format="1">
  <advance width="569"/>
  <unicode hex="0065"/>
  <outline>
    <contour>
      <point x="318" y="-12" type="curve" smooth="yes"/>
      <point x="412" y="-12"/>
      <point x="490" y="30"/>
      <point x="527" y="103" type="curve"/>
      <point x="499" y="123" type="line"/>
      <point x="466" y="64"/>
      <point x="412" y="24"/>
      <point x="325" y="24" type="curve" smooth="yes"/>
      <point x="220" y="24"/>
      <point x="141" y="110"/>
      <point x="141" y="264" type="curve" smooth="yes"/>
      <point x="141" y="419"/>
      <point x="211" y="514"/>
      <point x="299" y="514" type="curve" smooth="yes"/>
      <point x="390" y="514"/>
      <point x="432" y="437"/>
      <point x="434" y="280" type="curve"/>
      <point x="462" y="295" type="line"/>
      <point x="110" y="295" type="line"/>
      <point x="111" y="259" type="line"/>
      <point x="529" y="259" type="line"/>
      <point x="528" y="452"/>
      <point x="448" y="550"/>
      <point x="299" y="550" type="curve" smooth="yes"/>
      <point x="160" y="550"/>
      <point x="50" y="435"/>
      <point x="50" y="266" type="curve" smooth="yes"/>
      <point x="50" y="96"/>
      <point x="168" y="-12"/>
    </contour>
  </outline>
</glyph>
<glyph name="f" format="1">
  <advance width="414"/>
  <unicode hex="0066"/>
  <outline>
    <contour>
      <point x="41" y="20" type="line"/>
      <point x="41" y="0" type="line"/>
      <point x="349" y="0" type="line"/>
      <point x="349" y="20" type="line"/>
      <point x="338" y="20" type="line"/>
      <point x="280" y="20"/>
      <point x="236" y="23"/>
      <point x="236" y="30" type="curve"/>
      <point x="147" y="56" type="line"/>
      <point x="147" y="27"/>
      <point x="111" y="20"/>
      <point x="52" y="20" type="curve"/>
    </contour>
    <contour>
      <point x="41" y="539" type="line"/>
      <point x="41" y="505" type="line"/>
      <point x="394" y="505" type="line"/>
      <point x="394" y="539" type="line"/>
    </contour>
    <contour>
      <point x="394" y="637" type="line"/>
      <point x="475" y="637" type="line"/>
      <point x="475" y="719" type="line"/>
      <point x="455" y="747"/>
      <point x="407" y="776"/>
      <point x="334" y="776" type="curve" smooth="yes"/>
      <point x="225" y="776"/>
      <point x="147" y="711.0"/>
      <point x="147" y="594" type="curve" smooth="yes"/>
      <point x="147" y="0" type="line"/>
      <point x="236" y="0" type="line"/>
      <point x="236" y="594" type="line" smooth="yes"/>
      <point x="236" y="697.0"/>
      <point x="267" y="742"/>
      <point x="334" y="742" type="curve" smooth="yes"/>
      <point x="377" y="742"/>
      <point x="403" y="725"/>
      <point x="421" y="689" type="curve"/>
      <point x="438" y="708"/>
      <point x="423" y="736"/>
      <point x="394" y="735" type="curve"/>
    </contour>
  </outline>
</glyph>
<glyph name="g" format="1">
  <advance width="637"/>
  <unicode hex="0067"/>
  <outline>
    <contour>
      <point x="295" y="-252" type="curve" smooth="yes"/>
      <point x="332" y="-252" type="line" smooth="yes"/>
      <point x="474" y="-252"/>
      <point x="595" y="-190"/>
      <point x="595" y="-73" type="curve" smooth="yes"/>
      <point x="595" y="14"/>
      <point x="534" y="57"/>
      <point x="420" y="57" type="curve" smooth="yes"/>
      <point x="226" y="57" type="line" smooth="yes"/>
      <point x="173" y="57"/>
      <point x="143" y="71"/>
      <point x="143" y="105" type="curve" smooth="yes"/>
      <point x="143" y="141"/>
      <point x="171" y="170"/>
      <point x="211" y="194" type="curve"/>
      <point x="228" y="213"/>
      <point x="200" y="229"/>
      <point x="185" y="209" type="curve"/>
      <point x="119" y="174"/>
      <point x="83" y="128"/>
      <point x="83" y="78" type="curve" smooth="yes"/>
      <point x="83" y="44"/>
      <point x="99" y="5"/>
      <point x="143" y="-17" type="curve"/>
      <point x="142" y="-23"/>
      <point x="135" y="-19"/>
      <point x="137" y="-29" type="curve"/>
      <point x="419" y="-29" type="line" smooth="yes"/>
      <point x="501" y="-29"/>
      <point x="525" y="-50"/>
      <point x="525" y="-95" type="curve" smooth="yes"/>
      <point x="525" y="-169"/>
      <point x="446" y="-218"/>
      <point x="331" y="-218" type="curve" smooth="yes"/>
      <point x="296" y="-218" type="line" smooth="yes"/>
      <point x="168" y="-218"/>
      <point x="105" y="-178"/>
      <point x="105" y="-119" type="curve" smooth="yes"/>
      <point x="105" y="-76"/>
      <point x="122" y="-38"/>
      <point x="171" y="-13" type="curve"/>
      <point x="156" y="5" type="line"/>
      <point x="81" y="-31"/>
      <point x="45" y="-68"/>
      <point x="45" y="-120" type="curve" smooth="yes"/>
      <point x="45" y="-213"/>
      <point x="158" y="-252"/>
    </contour>
    <contour>
      <point x="195" y="356" type="curve" smooth="yes"/>
      <point x="195" y="456"/>
      <point x="241" y="517"/>
      <point x="310" y="517" type="curve" smooth="yes"/>
      <point x="380" y="517"/>
      <point x="426" y="456"/>
      <point x="426" y="356" type="curve" smooth="yes"/>
      <point x="426" y="255"/>
      <point x="379" y="198"/>
      <point x="310" y="198" type="curve" smooth="yes"/>
      <point x="241" y="198"/>
      <point x="195" y="255"/>
    </contour>
    <contour>
      <point x="310" y="166" type="curve" smooth="yes"/>
      <point x="427" y="166"/>
      <point x="516" y="241"/>
      <point x="516" y="356" type="curve" smooth="yes"/>
      <point x="516" y="470"/>
      <point x="427" y="549"/>
      <point x="310" y="549" type="curve" smooth="yes"/>
      <point x="193" y="549"/>
      <point x="105" y="470"/>
      <point x="105" y="356" type="curve" smooth="yes"/>
      <point x="105" y="241"/>
      <point x="193" y="166"/>
    </contour>
    <contour>
      <point x="447" y="459" type="curve"/>
      <point x="460" y="444" type="line"/>
      <point x="485" y="477"/>
      <point x="519" y="480"/>
      <point x="602" y="473" type="curve"/>
      <point x="602" y="555" type="line"/>
      <point x="536" y="560"/>
      <point x="486" y="524"/>
    </contour>
  </outline>
</glyph>
<glyph name="h" format="1">
  <advance width="666"/>
  <unicode hex="0068"/>
  <outline>
    <contour>
      <point x="42" y="0" type="line"/>
      <point x="292" y="0" type="line"/>
      <point x="292" y="24" type="line"/>
      <point x="292" y="24" type="line"/>
      <point x="264" y="24"/>
      <point x="215" y="27"/>
      <point x="215" y="34" type="curve"/>
      <point x="126" y="60" type="line"/>
      <point x="126" y="31"/>
      <point x="91" y="24"/>
      <point x="44" y="24" type="curve"/>
      <point x="42" y="24" type="line"/>
    </contour>
    <contour>
      <point x="389" y="0" type="line"/>
      <point x="639" y="0" type="line"/>
      <point x="639" y="24" type="line"/>
      <point x="638" y="24" type="line"/>
      <point x="591" y="24"/>
      <point x="556" y="31"/>
      <point x="556" y="60" type="curve"/>
      <point x="467" y="34" type="line"/>
      <point x="467" y="27"/>
      <point x="418" y="24"/>
      <point x="390" y="24" type="curve"/>
      <point x="389" y="24" type="line"/>
    </contour>
    <contour>
      <point x="375" y="510" type="curve" smooth="yes"/>
      <point x="445" y="510"/>
      <point x="467" y="474"/>
      <point x="467" y="386" type="curve" smooth="yes"/>
      <point x="467" y="0" type="line"/>
      <point x="556" y="0" type="line"/>
      <point x="556" y="389" type="line" smooth="yes"/>
      <point x="556" y="500"/>
      <point x="488" y="550"/>
      <point x="391" y="550" type="curve" smooth="yes"/>
      <point x="292" y="550"/>
      <point x="235" y="494"/>
      <point x="179" y="401" type="curve"/>
      <point x="196" y="377" type="line"/>
      <point x="245" y="463"/>
      <point x="302" y="510"/>
    </contour>
    <contour>
      <point x="42" y="750" type="line"/>
      <point x="42" y="726" type="line"/>
      <point x="53" y="724" type="line" smooth="yes"/>
      <point x="103" y="715"/>
      <point x="126" y="708"/>
      <point x="126" y="679" type="curve" smooth="yes"/>
      <point x="126" y="0" type="line"/>
      <point x="215" y="0" type="line"/>
      <point x="215" y="750" type="line"/>
    </contour>
  </outline>
</glyph>
<glyph name="j" format="1">
  <advance width="344"/>
  <unicode hex="006A"/>
  <outline>
    <contour>
      <point x="225" y="-48" type="curve" smooth="yes"/>
      <point x="225" y="528" type="line"/>
      <point x="37" y="528" type="line"/>
      <point x="37" y="493" type="line"/>
      <point x="136" y="493" type="line"/>
      <point x="136" y="493" type="line"/>
      <point x="136" y="-48" type="line" smooth="yes"/>
      <point x="136" y="-158"/>
      <point x="87" y="-200"/>
      <point x="22" y="-200" type="curve"/>
      <point x="-18" y="-200"/>
      <point x="-46" y="-188"/>
      <point x="-70" y="-177" type="curve"/>
      <point x="-70" y="-229" type="line"/>
      <point x="-48" y="-235"/>
      <point x="-10" y="-239"/>
      <point x="24" y="-239" type="curve" smooth="yes"/>
      <point x="124" y="-239"/>
      <point x="225" y="-197"/>
    </contour>
    <contour>
      <point x="178" y="638" type="curve" smooth="yes"/>
      <point x="213" y="638"/>
      <point x="238" y="661"/>
      <point x="238" y="697" type="curve" smooth="yes"/>
      <point x="238" y="734"/>
      <point x="213" y="756"/>
      <point x="178" y="756" type="curve" smooth="yes"/>
      <point x="144" y="756"/>
      <point x="118" y="734"/>
      <point x="118" y="697" type="curve" smooth="yes"/>
      <point x="118" y="661"/>
      <point x="144" y="638"/>
    </contour>
  </outline>
</glyph>
<glyph name="k" format="1">
  <advance width="646"/>
  <unicode hex="006B"/>
  <outline>
    <contour>
      <point x="630" y="0" type="line"/>
      <point x="630" y="41" type="line"/>
      <point x="573" y="41" type="line"/>
      <point x="573" y="41" type="line"/>
      <point x="457" y="41" type="line"/>
      <point x="457" y="41" type="line"/>
      <point x="375" y="41" type="line"/>
      <point x="375" y="0" type="line"/>
    </contour>
    <contour>
      <point x="592" y="494" type="line"/>
      <point x="592" y="528" type="line"/>
      <point x="357" y="528" type="line"/>
      <point x="357" y="495" type="line"/>
      <point x="429" y="495" type="line"/>
      <point x="429" y="495" type="line"/>
      <point x="525" y="494" type="line"/>
      <point x="525" y="494" type="line"/>
    </contour>
    <contour>
      <point x="316" y="321" type="line"/>
      <point x="302" y="293" type="line"/>
      <point x="532" y="509" type="line"/>
      <point x="525" y="528" type="line"/>
      <point x="504" y="528" type="line"/>
      <point x="244" y="283" type="line"/>
      <point x="244" y="278" type="line"/>
      <point x="493" y="0" type="line"/>
      <point x="573" y="0" type="line"/>
      <point x="587" y="27" type="line"/>
    </contour>
    <contour>
      <point x="45" y="0" type="line"/>
      <point x="293" y="0" type="line"/>
      <point x="293" y="41" type="line"/>
      <point x="223" y="41" type="line"/>
      <point x="223" y="41" type="line"/>
      <point x="134" y="41" type="line"/>
      <point x="134" y="41" type="line"/>
      <point x="45" y="41" type="line"/>
    </contour>
    <contour>
      <point x="45" y="750" type="line"/>
      <point x="45" y="715" type="line"/>
      <point x="134" y="715" type="line"/>
      <point x="134" y="715" type="line"/>
      <point x="134" y="0" type="line"/>
      <point x="223" y="0" type="line"/>
      <point x="223" y="750" type="line"/>
    </contour>
  </outline>
</glyph>
<glyph name="l" format="1">
  <advance width="325"/>
  <unicode hex="006C"/>
  <outline>
    <contour>
      <point x="126" y="0" type="line"/>
      <point x="215" y="0" type="line"/>
      <point x="215" y="750" type="line"/>
      <point x="42" y="750" type="line"/>
      <point x="42" y="726" type="line"/>
      <point x="53" y="724" type="line" smooth="yes"/>
      <point x="103" y="715"/>
      <point x="126" y="708"/>
      <point x="126" y="679" type="curve" smooth="yes"/>
    </contour>
    <contour>
      <point x="43" y="0" type="line"/>
      <point x="298" y="0" type="line"/>
      <point x="298" y="24" type="line"/>
      <point x="297" y="24" type="line"/>
      <point x="250" y="24"/>
      <point x="215" y="31"/>
      <point x="215" y="60" type="curve"/>
      <point x="126" y="60" type="line"/>
      <point x="126" y="31"/>
      <point x="91" y="24"/>
      <point x="44" y="24" type="curve"/>
      <point x="43" y="24" type="line"/>
    </contour>
  </outline>
</glyph>
<glyph name="m" format="1">
  <advance width="944"/>
  <unicode hex="006D"/>
  <outline>
    <contour>
      <point x="359" y="510" type="curve" smooth="yes"/>
      <point x="416.0" y="510.0"/>
      <point x="434" y="474.0"/>
      <point x="434" y="385" type="curve" smooth="yes"/>
      <point x="434" y="0" type="line"/>
      <point x="523" y="0" type="line"/>
      <point x="523" y="389" type="line" smooth="yes"/>
      <point x="523" y="500"/>
      <point x="463" y="550"/>
      <point x="374" y="550" type="curve" smooth="yes"/>
      <point x="283" y="550"/>
      <point x="234" y="492"/>
      <point x="179" y="401" type="curve"/>
      <point x="196" y="376" type="line"/>
      <point x="243.66783952082884" y="460.63473547575734"/>
      <point x="293.0" y="510.0"/>
    </contour>
    <contour>
      <point x="668" y="510" type="curve" smooth="yes"/>
      <point x="725.0" y="510.0"/>
      <point x="743" y="474.0"/>
      <point x="743" y="385" type="curve" smooth="yes"/>
      <point x="743" y="0" type="line"/>
      <point x="832" y="0" type="line"/>
      <point x="832" y="389" type="line"/>
      <point x="832" y="500"/>
      <point x="771" y="550"/>
      <point x="683" y="550" type="curve" smooth="yes"/>
      <point x="592" y="550"/>
      <point x="543" y="492"/>
      <point x="489" y="401" type="curve"/>
      <point x="505" y="376" type="line"/>
      <point x="552.675405328194" y="459.6752011882587"/>
      <point x="602.0" y="510.0"/>
    </contour>
    <contour>
      <point x="42" y="0" type="line"/>
      <point x="287" y="0" type="line"/>
      <point x="287" y="24" type="line"/>
      <point x="287" y="24" type="line"/>
      <point x="259" y="24"/>
      <point x="215" y="27"/>
      <point x="215" y="34" type="curve"/>
      <point x="126" y="60" type="line"/>
      <point x="126" y="31"/>
      <point x="91" y="24"/>
      <point x="44" y="24" type="curve"/>
      <point x="42" y="24" type="line"/>
    </contour>
    <contour>
      <point x="42" y="540" type="line"/>
      <point x="42" y="516" type="line"/>
      <point x="53" y="514" type="line" smooth="yes"/>
      <point x="102" y="505"/>
      <point x="126" y="498"/>
      <point x="126" y="469" type="curve" smooth="yes"/>
      <point x="126" y="0" type="line"/>
      <point x="215" y="0" type="line"/>
      <point x="215" y="427" type="line"/>
      <point x="208" y="439" type="line"/>
      <point x="208" y="540" type="line"/>
    </contour>
    <contour>
      <point x="362" y="0" type="line"/>
      <point x="596" y="0" type="line"/>
      <point x="596" y="24" type="line"/>
      <point x="595" y="24" type="line"/>
      <point x="567" y="24"/>
      <point x="523" y="27"/>
      <point x="523" y="34" type="curve"/>
      <point x="434" y="34" type="line"/>
      <point x="434" y="27"/>
      <point x="390" y="24"/>
      <point x="362" y="24" type="curve"/>
      <point x="362" y="24" type="line"/>
    </contour>
    <contour>
      <point x="917" y="0" type="line"/>
      <point x="917" y="24" type="line"/>
      <point x="914" y="24" type="line"/>
      <point x="867" y="24"/>
      <point x="832" y="31"/>
      <point x="832" y="60" type="curve"/>
      <point x="743" y="34" type="line"/>
      <point x="743" y="29"/>
      <point x="699" y="24"/>
      <point x="671" y="24" type="curve"/>
      <point x="671" y="24" type="line"/>
      <point x="671" y="0" type="line"/>
    </contour>
  </outline>
</glyph>
<glyph name="n" format="1">
  <advance width="677"/>
  <unicode hex="006E"/>
  <outline>
    <contour>
      <point x="46" y="0" type="line"/>
      <point x="298" y="0" type="line"/>
      <point x="298" y="19" type="line"/>
      <point x="298" y="19" type="line"/>
      <point x="270" y="19"/>
      <point x="221" y="22"/>
      <point x="221" y="29" type="curve"/>
      <point x="132" y="55" type="line"/>
      <point x="132" y="26"/>
      <point x="96" y="19"/>
      <point x="47" y="19" type="curve"/>
      <point x="46" y="19" type="line"/>
    </contour>
    <contour>
      <point x="396" y="0" type="line"/>
      <point x="648" y="0" type="line"/>
      <point x="648" y="19" type="line"/>
      <point x="647" y="19" type="line"/>
      <point x="598" y="19"/>
      <point x="562" y="26"/>
      <point x="562" y="55" type="curve"/>
      <point x="473" y="29" type="line"/>
      <point x="473" y="22"/>
      <point x="424" y="19"/>
      <point x="396" y="19" type="curve"/>
      <point x="396" y="19" type="line"/>
    </contour>
    <contour>
      <point x="382" y="509" type="curve" smooth="yes"/>
      <point x="451" y="509"/>
      <point x="473" y="474"/>
      <point x="473" y="385" type="curve" smooth="yes"/>
      <point x="473" y="0" type="line"/>
      <point x="562" y="0" type="line"/>
      <point x="562" y="388" type="line" smooth="yes"/>
      <point x="562" y="499"/>
      <point x="495" y="549"/>
      <point x="397" y="549" type="curve" smooth="yes"/>
      <point x="299" y="549"/>
      <point x="242" y="493"/>
      <point x="186" y="400" type="curve"/>
      <point x="202" y="376" type="line"/>
      <point x="251" y="462"/>
      <point x="309" y="509"/>
    </contour>
    <contour>
      <point x="46" y="539" type="line"/>
      <point x="46" y="515" type="line"/>
      <point x="56" y="513" type="line"/>
      <point x="108" y="506"/>
      <point x="132" y="497"/>
      <point x="132" y="468" type="curve"/>
      <point x="132" y="0" type="line"/>
      <point x="221" y="0" type="line"/>
      <point x="221" y="425" type="line"/>
      <point x="214" y="434" type="line"/>
      <point x="214" y="539" type="line"/>
    </contour>
  </outline>
</glyph>
<glyph name="o" format="1">
  <advance width="649"/>
  <unicode hex="006F"/>
  <outline>
    <contour>
      <point x="324" y="-12" type="curve" smooth="yes"/>
      <point x="482" y="-12"/>
      <point x="596.0" y="103.0"/>
      <point x="596" y="268" type="curve" smooth="yes"/>
      <point x="596.0" y="432.0"/>
      <point x="482" y="548"/>
      <point x="324" y="548" type="curve" smooth="yes"/>
      <point x="167" y="548"/>
      <point x="53.0" y="432.0"/>
      <point x="53" y="267" type="curve" smooth="yes"/>
      <point x="53.0" y="103.0"/>
      <point x="167" y="-12"/>
    </contour>
    <contour>
      <point x="324" y="24" type="curve" smooth="yes"/>
      <point x="210" y="24"/>
      <point x="147.0" y="123.225"/>
      <point x="147" y="267" type="curve" smooth="yes"/>
      <point x="147.0" y="411.77272727272725"/>
      <point x="210" y="512"/>
      <point x="324" y="512" type="curve" smooth="yes"/>
      <point x="439" y="512"/>
      <point x="502.0" y="411.76763485477176"/>
      <point x="502" y="268" type="curve" smooth="yes"/>
      <point x="502.0" y="123.21991701244812"/>
      <point x="439" y="24"/>
    </contour>
  </outline>
</glyph>
<glyph name="p" format="1">
  <advance width="687"/>
  <unicode hex="0070"/>
  <outline>
    <contour>
      <point x="40" y="540" type="line"/>
      <point x="40" y="516" type="line"/>
      <point x="51" y="514" type="line" smooth="yes"/>
      <point x="100" y="505"/>
      <point x="124" y="498"/>
      <point x="124" y="469" type="curve" smooth="yes"/>
      <point x="124" y="-216" type="line"/>
      <point x="213" y="-216" type="line"/>
      <point x="213" y="421" type="line"/>
      <point x="206" y="423" type="line"/>
      <point x="206" y="540" type="line"/>
    </contour>
    <contour>
      <point x="543" y="272" type="curve" smooth="yes"/>
      <point x="543" y="123"/>
      <point x="486" y="28"/>
      <point x="385" y="28" type="curve" smooth="yes"/>
      <point x="298" y="28"/>
      <point x="236" y="72"/>
      <point x="188" y="172" type="curve"/>
      <point x="159" y="163" type="line"/>
      <point x="222" y="39"/>
      <point x="286" y="-11"/>
      <point x="388" y="-11" type="curve" smooth="yes"/>
      <point x="537" y="-11"/>
      <point x="637" y="104"/>
      <point x="637" y="272" type="curve" smooth="yes"/>
      <point x="637" y="438"/>
      <point x="536" y="550"/>
      <point x="391" y="550" type="curve" smooth="yes"/>
      <point x="287" y="550"/>
      <point x="227" y="489"/>
      <point x="163" y="363" type="curve"/>
      <point x="191" y="351" type="line"/>
      <point x="238" y="452"/>
      <point x="299" y="511"/>
      <point x="387" y="511" type="curve" smooth="yes"/>
      <point x="486" y="511"/>
      <point x="543" y="416"/>
    </contour>
    <contour>
      <point x="40" y="-223" type="line"/>
      <point x="300" y="-223" type="line"/>
      <point x="300" y="-199" type="line"/>
      <point x="287" y="-199" type="line"/>
      <point x="260" y="-199"/>
      <point x="213" y="-196"/>
      <point x="213" y="-189" type="curve"/>
      <point x="124" y="-163" type="line"/>
      <point x="124" y="-192"/>
      <point x="88" y="-199"/>
      <point x="41" y="-199" type="curve"/>
      <point x="40" y="-199" type="line"/>
    </contour>
  </outline>
</glyph>
<glyph name="q" format="1">
  <advance width="664"/>
  <unicode hex="0071"/>
  <outline>
    <contour>
      <point x="563" y="547" type="line"/>
      <point x="528" y="547" type="line"/>
      <point x="479" y="440" type="line"/>
      <point x="474" y="427" type="line"/>
      <point x="474" y="-210" type="line"/>
      <point x="563" y="-210" type="line"/>
    </contour>
    <contour>
      <point x="144" y="266" type="curve" smooth="yes"/>
      <point x="144" y="415"/>
      <point x="201" y="511"/>
      <point x="302" y="511" type="curve" smooth="yes"/>
      <point x="389" y="511"/>
      <point x="451" y="467"/>
      <point x="499" y="367" type="curve"/>
      <point x="528" y="376" type="line"/>
      <point x="465" y="499"/>
      <point x="401" y="550"/>
      <point x="299" y="550" type="curve" smooth="yes"/>
      <point x="150" y="550"/>
      <point x="50" y="435"/>
      <point x="50" y="266" type="curve" smooth="yes"/>
      <point x="50" y="100"/>
      <point x="151" y="-11"/>
      <point x="296" y="-11" type="curve" smooth="yes"/>
      <point x="400" y="-11"/>
      <point x="460" y="50"/>
      <point x="524" y="176" type="curve"/>
      <point x="496" y="188" type="line"/>
      <point x="450" y="86"/>
      <point x="388" y="28"/>
      <point x="299" y="28" type="curve" smooth="yes"/>
      <point x="201" y="28"/>
      <point x="144" y="123"/>
    </contour>
    <contour>
      <point x="647" y="-223" type="line"/>
      <point x="647" y="-199" type="line"/>
      <point x="646" y="-199" type="line"/>
      <point x="599" y="-199"/>
      <point x="563" y="-192"/>
      <point x="563" y="-163" type="curve"/>
      <point x="474" y="-189" type="line"/>
      <point x="474" y="-196"/>
      <point x="427" y="-199"/>
      <point x="400" y="-199" type="curve"/>
      <point x="384" y="-199" type="line"/>
      <point x="384" y="-223" type="line"/>
    </contour>
  </outline>
</glyph>
<glyph name="r" format="1">
  <advance width="413"/>
  <unicode hex="0072"/>
  <outline>
    <contour>
      <point x="396" y="549" type="line"/>
      <point x="388" y="551"/>
      <point x="377" y="552"/>
      <point x="363" y="552" type="curve" smooth="yes"/>
      <point x="295" y="552"/>
      <point x="245" y="495"/>
      <point x="199" y="389" type="curve"/>
      <point x="209" y="355" type="line"/>
      <point x="245" y="438"/>
      <point x="279" y="479"/>
      <point x="331" y="479" type="curve" smooth="yes"/>
      <point x="351" y="479"/>
      <point x="371" y="475"/>
      <point x="396" y="468" type="curve"/>
    </contour>
    <contour>
      <point x="45" y="0" type="line"/>
      <point x="306" y="0" type="line"/>
      <point x="306" y="24" type="line"/>
      <point x="295" y="24" type="line" smooth="yes"/>
      <point x="267" y="24"/>
      <point x="218" y="27"/>
      <point x="218" y="34" type="curve"/>
      <point x="129" y="60" type="line"/>
      <point x="129" y="31"/>
      <point x="93" y="24"/>
      <point x="47" y="24" type="curve" smooth="yes"/>
      <point x="45" y="24" type="line"/>
    </contour>
    <contour>
      <point x="45" y="540" type="line"/>
      <point x="45" y="516" type="line"/>
      <point x="56" y="514" type="line" smooth="yes"/>
      <point x="106" y="505"/>
      <point x="129" y="498"/>
      <point x="129" y="469" type="curve" smooth="yes"/>
      <point x="129" y="0" type="line"/>
      <point x="218" y="0" type="line"/>
      <point x="218" y="399" type="line"/>
      <point x="211" y="392" type="line"/>
      <point x="211" y="540" type="line"/>
    </contour>
  </outline>
</glyph>
<glyph name="s" format="1">
  <advance width="471"/>
  <unicode hex="0073"/>
  <outline>
    <contour>
      <point x="356" y="128" type="curve"/>
      <point x="356" y="62"/>
      <point x="317" y="23"/>
      <point x="238" y="23" type="curve" smooth="yes"/>
      <point x="178" y="23"/>
      <point x="128" y="43"/>
      <point x="104" y="98" type="curve"/>
      <point x="91" y="59"/>
      <point x="94" y="52"/>
      <point x="126" y="35" type="curve"/>
      <point x="126" y="176" type="line"/>
      <point x="38" y="176" type="line"/>
      <point x="38" y="73" type="line"/>
      <point x="76" y="22"/>
      <point x="149" y="-11"/>
      <point x="243" y="-11" type="curve" smooth="yes"/>
      <point x="362" y="-11"/>
      <point x="434" y="60"/>
      <point x="434" y="148" type="curve"/>
      <point x="434" y="353"/>
      <point x="134" y="268"/>
      <point x="134" y="418" type="curve" smooth="yes"/>
      <point x="134" y="472"/>
      <point x="168" y="515"/>
      <point x="238" y="515" type="curve" smooth="yes"/>
      <point x="286" y="515"/>
      <point x="325" y="494"/>
      <point x="346" y="447" type="curve"/>
      <point x="351" y="471"/>
      <point x="345" y="503"/>
      <point x="317" y="500" type="curve"/>
      <point x="317" y="389" type="line"/>
      <point x="402" y="389" type="line"/>
      <point x="402" y="389"/>
      <point x="402" y="474"/>
      <point x="402" y="475" type="curve"/>
      <point x="377" y="516"/>
      <point x="316" y="549"/>
      <point x="235" y="549" type="curve" smooth="yes"/>
      <point x="127" y="549"/>
      <point x="59" y="486"/>
      <point x="59" y="397" type="curve" smooth="yes"/>
      <point x="59" y="185"/>
      <point x="356" y="272"/>
    </contour>
  </outline>
</glyph>
<glyph name="t" format="1">
  <advance width="402"/>
  <unicode hex="0074"/>
  <outline>
    <contour>
      <point x="17" y="506" type="line"/>
      <point x="17" y="535" type="line"/>
      <point x="20" y="535" type="line"/>
      <point x="89" y="535"/>
      <point x="122" y="549"/>
      <point x="123" y="592" type="curve"/>
      <point x="173" y="540" type="line"/>
      <point x="350" y="540" type="line"/>
      <point x="350" y="506" type="line"/>
    </contour>
    <contour>
      <point x="205" y="172" type="line"/>
      <point x="205" y="66"/>
      <point x="239" y="26"/>
      <point x="291" y="26" type="curve" smooth="yes"/>
      <point x="318" y="26"/>
      <point x="339" y="31"/>
      <point x="365" y="41" type="curve"/>
      <point x="365" y="6" type="line"/>
      <point x="344" y="-3"/>
      <point x="313" y="-11"/>
      <point x="283" y="-11" type="curve" smooth="yes"/>
      <point x="200" y="-11"/>
      <point x="116" y="28"/>
      <point x="116" y="171" type="curve"/>
      <point x="116" y="542" type="line"/>
      <point x="123" y="545" type="line"/>
      <point x="123" y="669" type="line"/>
      <point x="205" y="669" type="line"/>
    </contour>
  </outline>
</glyph>
<glyph name="u" format="1">
  <advance width="650"/>
  <unicode hex="0075"/>
  <outline>
    <contour>
      <point x="112" y="469" type="line" smooth="yes"/>
      <point x="112" y="498"/>
      <point x="91" y="505"/>
      <point x="39" y="514" type="curve" smooth="yes"/>
      <point x="27" y="516" type="line"/>
      <point x="27" y="540" type="line"/>
      <point x="201" y="540" type="line"/>
      <point x="201" y="154" type="line" smooth="yes"/>
      <point x="201" y="64"/>
      <point x="223" y="28"/>
      <point x="292" y="28" type="curve" smooth="yes"/>
      <point x="364" y="28"/>
      <point x="420" y="76"/>
      <point x="469" y="163" type="curve"/>
      <point x="486" y="138" type="line"/>
      <point x="430" y="44"/>
      <point x="374" y="-11"/>
      <point x="277" y="-11" type="curve" smooth="yes"/>
      <point x="180" y="-11"/>
      <point x="112" y="39"/>
      <point x="112" y="150" type="curve" smooth="yes"/>
    </contour>
    <contour>
      <point x="449" y="469" type="line" smooth="yes"/>
      <point x="449" y="498"/>
      <point x="425" y="509"/>
      <point x="373" y="514" type="curve" smooth="yes"/>
      <point x="351" y="516" type="line"/>
      <point x="351" y="540" type="line"/>
      <point x="538" y="540" type="line"/>
      <point x="538" y="60" type="line" smooth="yes"/>
      <point x="538" y="31"/>
      <point x="571" y="24"/>
      <point x="620" y="24" type="curve" smooth="yes"/>
      <point x="623" y="24" type="line"/>
      <point x="623" y="0" type="line"/>
      <point x="456" y="0" type="line"/>
      <point x="456" y="101" type="line"/>
      <point x="449" y="113" type="line"/>
    </contour>
  </outline>
</glyph>
<glyph name="v" format="1">
  <advance width="598"/>
  <unicode hex="0076"/>
  <outline>
    <contour>
      <point x="244" y="528" type="line"/>
      <point x="-2" y="528" type="line"/>
      <point x="-2" y="494" type="line"/>
      <point x="61" y="494" type="line"/>
      <point x="61" y="494" type="line"/>
      <point x="151" y="494" type="line"/>
      <point x="151" y="494" type="line"/>
      <point x="244" y="494" type="line"/>
    </contour>
    <contour>
      <point x="321" y="0" type="line"/>
      <point x="323" y="22" type="line"/>
      <point x="140" y="528" type="line"/>
      <point x="48" y="526" type="line"/>
      <point x="245" y="0" type="line"/>
    </contour>
    <contour>
      <point x="390" y="528" type="line"/>
      <point x="390" y="494" type="line"/>
      <point x="479" y="494" type="line"/>
      <point x="479" y="494" type="line"/>
      <point x="520" y="494" type="line"/>
      <point x="520" y="494" type="line"/>
      <point x="586" y="494" type="line"/>
      <point x="586" y="528" type="line"/>
    </contour>
    <contour>
      <point x="301" y="0" type="line"/>
      <point x="336" y="0" type="line"/>
      <point x="532" y="526" type="line"/>
      <point x="491" y="528" type="line"/>
      <point x="308" y="22" type="line"/>
    </contour>
  </outline>
</glyph>
<glyph name="w" format="1">
  <advance width="853"/>
  <unicode hex="0077"/>
  <outline>
    <contour>
      <point x="247" y="528" type="line"/>
      <point x="3" y="528" type="line"/>
      <point x="3" y="494" type="line"/>
      <point x="62" y="494" type="line"/>
      <point x="62" y="494" type="line"/>
      <point x="152" y="494" type="line"/>
      <point x="152" y="494" type="line"/>
      <point x="247" y="494" type="line"/>
    </contour>
    <contour>
      <point x="274" y="0" type="line"/>
      <point x="272" y="37" type="line"/>
      <point x="144" y="528" type="line"/>
      <point x="52" y="526" type="line"/>
      <point x="200" y="0" type="line"/>
    </contour>
    <contour>
      <point x="612" y="0" type="line"/>
      <point x="634" y="0" type="line"/>
      <point x="779" y="526" type="line"/>
      <point x="739" y="528" type="line"/>
      <point x="612" y="37" type="line"/>
    </contour>
    <contour>
      <point x="641" y="528" type="line"/>
      <point x="641" y="494" type="line"/>
      <point x="730" y="494" type="line"/>
      <point x="730" y="494" type="line"/>
      <point x="770" y="494" type="line"/>
      <point x="770" y="494" type="line"/>
      <point x="831" y="494" type="line"/>
      <point x="831" y="528" type="line"/>
    </contour>
    <contour>
      <point x="407" y="470" type="line"/>
      <point x="550" y="0" type="line"/>
      <point x="625" y="0" type="line"/>
      <point x="621" y="37" type="line"/>
      <point x="475" y="528" type="line"/>
      <point x="407" y="528" type="line"/>
      <point x="263" y="44" type="line"/>
      <point x="261" y="0" type="line"/>
      <point x="282" y="0" type="line"/>
      <point x="424" y="473" type="line"/>
    </contour>
  </outline>
</glyph>
<glyph name="x" format="1">
  <advance width="621"/>
  <unicode hex="0078"/>
  <outline>
    <contour>
      <point x="270" y="528" type="line"/>
      <point x="30" y="528" type="line"/>
      <point x="30" y="494" type="line"/>
      <point x="88" y="494" type="line"/>
      <point x="88" y="494" type="line"/>
      <point x="187" y="495" type="line"/>
      <point x="187" y="495" type="line"/>
      <point x="270" y="495" type="line"/>
    </contour>
    <contour>
      <point x="378" y="528" type="line"/>
      <point x="378" y="495" type="line"/>
      <point x="479" y="495" type="line"/>
      <point x="479" y="495" type="line"/>
      <point x="520" y="494" type="line"/>
      <point x="520" y="494" type="line"/>
      <point x="609" y="494" type="line"/>
      <point x="609" y="528" type="line"/>
    </contour>
    <contour>
      <point x="360" y="0" type="line"/>
      <point x="612" y="0" type="line"/>
      <point x="612" y="34" type="line"/>
      <point x="549" y="34" type="line"/>
      <point x="549" y="34" type="line"/>
      <point x="450" y="33" type="line"/>
      <point x="450" y="33" type="line"/>
      <point x="360" y="33" type="line"/>
    </contour>
    <contour>
      <point x="252" y="0" type="line"/>
      <point x="252" y="33" type="line"/>
      <point x="137" y="33" type="line"/>
      <point x="137" y="33" type="line"/>
      <point x="94" y="34" type="line"/>
      <point x="94" y="34" type="line"/>
      <point x="9" y="34" type="line"/>
      <point x="9" y="0" type="line"/>
    </contour>
    <contour>
      <point x="334" y="255" type="line"/>
      <point x="545" y="526" type="line"/>
      <point x="505" y="528" type="line"/>
      <point x="320" y="292" type="line"/>
    </contour>
    <contour>
      <point x="477" y="0" type="line"/>
      <point x="574" y="2" type="line"/>
      <point x="346" y="292" type="line"/>
      <point x="342" y="296" type="line"/>
      <point x="160" y="528" type="line"/>
      <point x="63" y="526" type="line"/>
      <point x="281" y="249" type="line"/>
      <point x="286" y="244" type="line"/>
    </contour>
    <contour>
      <point x="290" y="283" type="line"/>
      <point x="68" y="2" type="line"/>
      <point x="111" y="0" type="line"/>
      <point x="303" y="249" type="line"/>
    </contour>
  </outline>
</glyph>
<glyph name="y" format="1">
  <advance width="604"/>
  <unicode hex="0079"/>
  <outline>
    <contour>
      <point x="255" y="528" type="line"/>
      <point x="5" y="528" type="line"/>
      <point x="5" y="494" type="line"/>
      <point x="70" y="494" type="line"/>
      <point x="70" y="494" type="line"/>
      <point x="161" y="494" type="line"/>
      <point x="161" y="494" type="line"/>
      <point x="255" y="494" type="line"/>
    </contour>
    <contour>
      <point x="321" y="19" type="line"/>
      <point x="339" y="58" type="line"/>
      <point x="147" y="528" type="line"/>
      <point x="56" y="526" type="line"/>
      <point x="289" y="-32" type="line"/>
    </contour>
    <contour>
      <point x="397" y="528" type="line"/>
      <point x="397" y="494" type="line"/>
      <point x="490" y="494" type="line"/>
      <point x="490" y="494" type="line"/>
      <point x="531" y="494" type="line"/>
      <point x="531" y="494" type="line"/>
      <point x="599" y="494" type="line"/>
      <point x="599" y="528" type="line"/>
    </contour>
    <contour>
      <point x="335" y="17" type="curve" smooth="yes"/>
      <point x="543" y="526" type="line"/>
      <point x="503" y="528" type="line"/>
      <point x="318" y="73" type="line"/>
      <point x="303" y="43" type="line" smooth="yes"/>
      <point x="235" y="-146"/>
      <point x="179" y="-148"/>
      <point x="43" y="-148" type="curve"/>
      <point x="43" y="-232" type="line"/>
      <point x="208" y="-233"/>
      <point x="264" y="-157"/>
    </contour>
  </outline>
</glyph>
<glyph name="z" format="1">
  <advance width="490"/>
  <unicode hex="007A"/>
  <outline>
    <contour>
      <point x="387" y="33" type="line"/>
      <point x="387" y="33" type="line"/>
      <point x="387" y="171" type="line"/>
      <point x="458" y="171" type="line"/>
      <point x="458" y="0" type="line"/>
      <point x="36" y="0" type="line"/>
      <point x="36" y="38" type="line"/>
      <point x="366" y="512" type="line"/>
      <point x="392" y="495" type="line"/>
      <point x="119" y="495" type="line"/>
      <point x="119" y="495" type="line"/>
      <point x="119" y="367" type="line"/>
      <point x="47" y="367" type="line"/>
      <point x="47" y="528" type="line"/>
      <point x="446" y="528" type="line"/>
      <point x="446" y="495" type="line"/>
      <point x="116" y="18" type="line"/>
      <point x="88" y="33" type="line"/>
    </contour>
  </outline>
</glyph>
<glyph name="endash" format="1">
  <advance width="613"/>
  <unicode hex="2013"/>
  <outline>
    <contour>
      <point x="82" y="350" type="line"/>
      <point x="82" y="280" type="line"/>
      <point x="531" y="280" type="line"/>
      <point x="531" y="350" type="line"/>
    </contour>
  </outline>
</glyph>
<glyph name="quoteright" format="1">
  <advance width="257"/>
  <unicode hex="2019"/>
  <outline>
    <contour>
      <point x="139" y="490" type="curve"/>
      <point x="163" y="522"/>
      <point x="190" y="586"/>
      <point x="190" y="644" type="curve"/>
      <point x="190" y="691"/>
      <point x="164" y="715"/>
      <point x="127" y="715" type="curve" smooth="yes"/>
      <point x="92" y="715"/>
      <point x="68" y="691"/>
      <point x="68" y="656" type="curve" smooth="yes"/>
      <point x="68" y="627"/>
      <point x="88" y="597"/>
      <point x="134" y="600" type="curve"/>
      <point x="125" y="610"/>
      <point x="135" y="618"/>
      <point x="119" y="611" type="curve"/>
      <point x="119" y="577"/>
      <point x="95" y="531"/>
      <point x="67" y="490" type="curve"/>
      <point x="85" y="490"/>
      <point x="121" y="490"/>
    </contour>
  </outline>
</glyph>
<glyph name="C.alt" format="1">
  <advance width="770"/>
  <outline>
    <contour>
      <point x="57" y="355" type="curve" smooth="yes"/>
      <point x="57" y="138"/>
      <point x="206" y="-10"/>
      <point x="416" y="-10" type="curve" smooth="yes"/>
      <point x="575" y="-10"/>
      <point x="686" y="87"/>
      <point x="720" y="227" type="curve"/>
      <point x="688" y="247" type="line"/>
      <point x="654.722404844" y="117.923267273"/>
      <point x="562.0" y="22.0"/>
      <point x="422" y="22" type="curve" smooth="yes"/>
      <point x="260.0" y="22.0"/>
      <point x="157.0" y="153.791540785"/>
      <point x="157" y="355" type="curve" smooth="yes"/>
      <point x="157.0" y="554.2"/>
      <point x="262" y="687"/>
      <point x="426" y="687" type="curve" smooth="yes"/>
      <point x="550" y="687"/>
      <point x="615" y="623"/>
      <point x="653" y="548" type="curve"/>
      <point x="659" y="592"/>
      <point x="626" y="634"/>
      <point x="599" y="633" type="curve"/>
      <point x="599" y="509" type="line"/>
      <point x="696" y="509" type="line"/>
      <point x="696" y="605" type="line"/>
      <point x="666" y="658"/>
      <point x="562" y="720"/>
      <point x="426" y="720" type="curve" smooth="yes"/>
      <point x="209" y="720"/>
      <point x="57" y="568"/>
    </contour>
  </outline>
</glyph>
<glyph name="E.alt" format="1">
  <advance width="611"/>
  <outline>
    <contour>
      <point x="135" y="0" type="line"/>
      <point x="228" y="0" type="line"/>
      <point x="228" y="710" type="line"/>
      <point x="135" y="710" type="line"/>
    </contour>
    <contour>
      <point x="198" y="380" type="line"/>
      <point x="198" y="346" type="line"/>
      <point x="408" y="346" type="line"/>
      <point x="408" y="380" type="line"/>
    </contour>
    <contour>
      <point x="529" y="710" type="line"/>
      <point x="49" y="710" type="line"/>
      <point x="49" y="686" type="line"/>
      <point x="55" y="686" type="line" smooth="yes"/>
      <point x="97" y="686"/>
      <point x="135" y="679"/>
      <point x="135" y="650" type="curve"/>
      <point x="198" y="676" type="line"/>
      <point x="358" y="676" type="line" smooth="yes"/>
      <point x="444" y="676"/>
      <point x="476" y="662"/>
      <point x="485" y="620" type="curve" smooth="yes"/>
      <point x="504" y="529" type="line"/>
      <point x="529" y="529" type="line"/>
    </contour>
    <contour>
      <point x="549" y="206" type="line"/>
      <point x="522" y="206" type="line"/>
      <point x="503" y="93" type="line" smooth="yes"/>
      <point x="495" y="48"/>
      <point x="462" y="34"/>
      <point x="376" y="34" type="curve"/>
      <point x="217" y="34" type="line"/>
      <point x="135" y="60" type="line"/>
      <point x="135" y="31"/>
      <point x="98" y="24"/>
      <point x="55" y="24" type="curve" smooth="yes"/>
      <point x="49" y="24" type="line"/>
      <point x="49" y="0" type="line"/>
      <point x="549" y="0" type="line"/>
    </contour>
    <contour>
      <point x="432" y="275" type="line"/>
      <point x="432" y="452" type="line"/>
      <point x="404" y="452" type="line"/>
      <point x="404" y="446" type="line"/>
      <point x="404" y="411"/>
      <point x="394" y="380"/>
      <point x="365" y="380" type="curve"/>
      <point x="365" y="346" type="line"/>
      <point x="394" y="346"/>
      <point x="404" y="315"/>
      <point x="404" y="281" type="curve"/>
      <point x="404" y="275" type="line"/>
    </contour>
  </outline>
</glyph>
<glyph name="G.alt" format="1">
  <advance width="798"/>
  <outline>
    <contour>
      <point x="521" y="353" type="line"/>
      <point x="521" y="329" type="line"/>
      <point x="527" y="329" type="line" smooth="yes"/>
      <point x="578" y="329"/>
      <point x="617" y="322"/>
      <point x="617" y="293" type="curve"/>
      <point x="707" y="293" type="line"/>
      <point x="707" y="322"/>
      <point x="742" y="329"/>
      <point x="780" y="329" type="curve" smooth="yes"/>
      <point x="786" y="329" type="line"/>
      <point x="786" y="353" type="line"/>
    </contour>
    <contour>
      <point x="157" y="355" type="curve" smooth="yes"/>
      <point x="157" y="555"/>
      <point x="265" y="688"/>
      <point x="416" y="688" type="curve" smooth="yes"/>
      <point x="526" y="688"/>
      <point x="615" y="628"/>
      <point x="641" y="568" type="curve"/>
      <point x="649" y="603"/>
      <point x="627" y="631"/>
      <point x="598" y="630" type="curve"/>
      <point x="598" y="504" type="line"/>
      <point x="695" y="504" type="line"/>
      <point x="695" y="600" type="line"/>
      <point x="667" y="653"/>
      <point x="561" y="720"/>
      <point x="416" y="720" type="curve" smooth="yes"/>
      <point x="213" y="720"/>
      <point x="57" y="569"/>
      <point x="57" y="355" type="curve" smooth="yes"/>
      <point x="57" y="137"/>
      <point x="204" y="-10"/>
      <point x="426" y="-10" type="curve" smooth="yes"/>
      <point x="550" y="-10"/>
      <point x="667" y="59"/>
      <point x="707" y="121" type="curve"/>
      <point x="707" y="316" type="line"/>
      <point x="617" y="324" type="line"/>
      <point x="617" y="103" type="line"/>
      <point x="595" y="79"/>
      <point x="529" y="29"/>
      <point x="427" y="29" type="curve" smooth="yes"/>
      <point x="257" y="29"/>
      <point x="157" y="153"/>
    </contour>
  </outline>
</glyph>
<glyph name="G.srf" format="1">
  <advance width="877"/>
  <outline>
    <contour>
      <point x="360" y="346" type="curve" smooth="yes"/>
      <point x="360" y="436"/>
      <point x="396" y="490"/>
      <point x="460" y="490" type="curve" smooth="yes"/>
      <point x="506" y="490"/>
      <point x="533" y="464"/>
      <point x="537" y="426" type="curve"/>
      <point x="862" y="426" type="line"/>
      <point x="860" y="710" type="line"/>
      <point x="622" y="710" type="line"/>
      <point x="624" y="523" type="line"/>
      <point x="652" y="460"/>
      <point x="665" y="499"/>
      <point x="682" y="480" type="curve"/>
      <point x="679" y="633"/>
      <point x="567" y="720"/>
      <point x="410" y="720" type="curve" smooth="yes"/>
      <point x="193" y="720"/>
      <point x="25" y="569"/>
      <point x="25" y="348" type="curve" smooth="yes"/>
      <point x="25" y="132"/>
      <point x="181" y="-10"/>
      <point x="409" y="-10" type="curve" smooth="yes"/>
      <point x="610" y="-10"/>
      <point x="700" y="93"/>
      <point x="707" y="296" type="curve"/>
      <point x="645" y="208" type="line"/>
      <point x="645" y="0" type="line"/>
      <point x="862" y="0" type="line"/>
      <point x="862" y="394" type="line"/>
      <point x="452" y="394" type="line"/>
      <point x="452" y="241" type="line"/>
      <point x="646" y="241" type="line"/>
      <point x="586" y="329" type="line"/>
      <point x="586" y="289" type="line" smooth="yes"/>
      <point x="586" y="225"/>
      <point x="548" y="190"/>
      <point x="479" y="190" type="curve" smooth="yes"/>
      <point x="385" y="190"/>
      <point x="360" y="255"/>
    </contour>
  </outline>
</glyph>
<glyph name="J.alt" format="1">
  <advance width="631"/>
  <outline>
    <contour>
      <point x="483" y="650" type="line"/>
      <point x="483" y="679"/>
      <point x="521" y="686"/>
      <point x="563" y="686" type="curve" smooth="yes"/>
      <point x="569" y="686" type="line"/>
      <point x="569" y="710" type="line"/>
      <point x="304" y="710" type="line"/>
      <point x="304" y="686" type="line"/>
      <point x="310" y="686" type="line" smooth="yes"/>
      <point x="352" y="686"/>
      <point x="390" y="679"/>
      <point x="390" y="650" type="curve"/>
    </contour>
    <contour>
      <point x="390" y="247" type="line" smooth="yes"/>
      <point x="390" y="68"/>
      <point x="335" y="24"/>
      <point x="246" y="24" type="curve" smooth="yes"/>
      <point x="179" y="24"/>
      <point x="141" y="44"/>
      <point x="128" y="76" type="curve"/>
      <point x="92" y="124"/>
      <point x="93" y="55"/>
      <point x="142" y="41" type="curve"/>
      <point x="142" y="153" type="line"/>
      <point x="50" y="153" type="line"/>
      <point x="50" y="58" type="line"/>
      <point x="82" y="21"/>
      <point x="144" y="-10"/>
      <point x="244" y="-10" type="curve"/>
      <point x="386" y="-10"/>
      <point x="483" y="58"/>
      <point x="483" y="247" type="curve" smooth="yes"/>
      <point x="483" y="710" type="line"/>
      <point x="390" y="710" type="line"/>
    </contour>
  </outline>
</glyph>
<glyph name="K.alt" format="1">
  <advance width="738"/>
  <outline>
    <contour>
      <point x="150" y="0" type="line"/>
      <point x="238" y="0" type="line"/>
      <point x="238" y="710" type="line"/>
      <point x="150" y="710" type="line"/>
    </contour>
    <contour>
      <point x="50" y="20" type="line"/>
      <point x="50" y="0" type="line"/>
      <point x="338" y="0" type="line"/>
      <point x="338" y="20" type="line"/>
      <point x="238" y="20" type="line"/>
      <point x="238" y="20" type="line"/>
      <point x="150" y="20" type="line"/>
      <point x="150" y="20" type="line"/>
    </contour>
    <contour>
      <point x="50" y="710" type="line"/>
      <point x="50" y="690" type="line"/>
      <point x="150" y="690" type="line"/>
      <point x="150" y="690" type="line"/>
      <point x="238" y="690" type="line"/>
      <point x="238" y="690" type="line"/>
      <point x="338" y="690" type="line"/>
      <point x="338" y="710" type="line"/>
    </contour>
    <contour>
      <point x="448" y="20" type="line"/>
      <point x="448" y="0" type="line"/>
      <point x="741" y="0" type="line"/>
      <point x="741" y="20" type="line"/>
      <point x="667" y="20" type="line"/>
      <point x="667" y="20" type="line"/>
      <point x="557" y="20" type="line"/>
      <point x="557" y="20" type="line"/>
    </contour>
    <contour>
      <point x="500" y="710" type="line"/>
      <point x="500" y="690" type="line"/>
      <point x="600" y="690" type="line"/>
      <point x="600" y="690" type="line"/>
      <point x="637" y="690" type="line"/>
      <point x="637" y="690" type="line"/>
      <point x="711" y="690" type="line"/>
      <point x="711" y="710" type="line"/>
    </contour>
    <contour>
      <point x="210" y="371" type="line"/>
      <point x="210" y="351" type="line"/>
      <point x="362" y="351" type="line"/>
      <point x="359" y="371" type="line"/>
    </contour>
    <contour>
      <point x="570" y="0" type="line"/>
      <point x="680" y="0" type="line"/>
      <point x="675" y="7" type="line"/>
      <point x="387" y="412" type="line"/>
      <point x="373" y="387" type="line"/>
      <point x="642" y="699" type="line"/>
      <point x="652" y="710" type="line"/>
      <point x="616" y="710" type="line"/>
      <point x="319" y="359" type="line"/>
      <point x="324" y="355" type="line"/>
    </contour>
  </outline>
</glyph>
<glyph name="Q.alt4" format="1">
  <advance width="789"/>
  <outline>
    <contour>
      <point x="394" y="-10" type="curve" smooth="yes"/>
      <point x="588" y="-10"/>
      <point x="744" y="139"/>
      <point x="744" y="355" type="curve" smooth="yes"/>
      <point x="744" y="572"/>
      <point x="588" y="720"/>
      <point x="394" y="720" type="curve" smooth="yes"/>
      <point x="200" y="720"/>
      <point x="45" y="572"/>
      <point x="45" y="355" type="curve" smooth="yes"/>
      <point x="45" y="139"/>
      <point x="200" y="-10"/>
    </contour>
    <contour>
      <point x="394" y="24" type="curve" smooth="yes"/>
      <point x="250" y="24"/>
      <point x="145" y="152"/>
      <point x="145" y="355" type="curve" smooth="yes"/>
      <point x="145" y="558"/>
      <point x="250" y="686"/>
      <point x="394" y="686" type="curve" smooth="yes"/>
      <point x="540" y="686"/>
      <point x="644" y="558"/>
      <point x="644" y="355" type="curve" smooth="yes"/>
      <point x="644" y="152"/>
      <point x="540" y="24"/>
    </contour>
    <contour>
      <point x="381" y="-7" type="line"/>
      <point x="373" y="-129"/>
      <point x="461" y="-184"/>
      <point x="574" y="-184" type="curve" smooth="yes"/>
      <point x="620" y="-184"/>
      <point x="671" y="-177"/>
      <point x="718" y="-167" type="curve"/>
      <point x="718" y="-77" type="line"/>
      <point x="668" y="-93"/>
      <point x="625" y="-109"/>
      <point x="561" y="-109" type="curve" smooth="yes"/>
      <point x="472" y="-109"/>
      <point x="410" y="-84"/>
      <point x="417" y="10" type="curve"/>
    </contour>
  </outline>
</glyph>
<glyph name="Q.alt5" format="1">
  <advance width="789"/>
  <outline>
    <contour>
      <point x="394" y="-10" type="curve" smooth="yes"/>
      <point x="588" y="-10"/>
      <point x="744" y="139"/>
      <point x="744" y="355" type="curve" smooth="yes"/>
      <point x="744" y="572"/>
      <point x="588" y="720"/>
      <point x="394" y="720" type="curve" smooth="yes"/>
      <point x="200" y="720"/>
      <point x="45" y="572"/>
      <point x="45" y="355" type="curve" smooth="yes"/>
      <point x="45" y="139"/>
      <point x="200" y="-10"/>
    </contour>
    <contour>
      <point x="394" y="24" type="curve" smooth="yes"/>
      <point x="250" y="24"/>
      <point x="145" y="152"/>
      <point x="145" y="355" type="curve" smooth="yes"/>
      <point x="145" y="558"/>
      <point x="250" y="686"/>
      <point x="394" y="686" type="curve" smooth="yes"/>
      <point x="540" y="686"/>
      <point x="644" y="558"/>
      <point x="644" y="355" type="curve" smooth="yes"/>
      <point x="644" y="152"/>
      <point x="540" y="24"/>
    </contour>
    <contour>
      <point x="371" y="7" type="line"/>
      <point x="450" y="-102"/>
      <point x="549" y="-156"/>
      <point x="722" y="-188" type="curve"/>
      <point x="743" y="-93" type="line"/>
      <point x="612" y="-83"/>
      <point x="489" y="-67"/>
      <point x="406" y="11" type="curve"/>
    </contour>
  </outline>
</glyph>
<glyph name="S.srf" format="1">
  <advance width="640"/>
  <outline>
    <contour>
      <point x="344.0" y="28.0" type="curve" smooth="yes"/>
      <point x="231.0" y="28.0"/>
      <point x="136.0" y="93.0"/>
      <point x="112.0" y="217.0" type="curve"/>
      <point x="48" y="217" type="line"/>
      <point x="48" y="0" type="line"/>
      <point x="89" y="0" type="line"/>
      <point x="103" y="166" type="line"/>
      <point x="101" y="175"/>
      <point x="99.0" y="155.0"/>
      <point x="86.0" y="155.0" type="curve"/>
      <point x="131.0" y="37.0"/>
      <point x="241.0" y="-10.0"/>
      <point x="351.0" y="-10.0" type="curve" smooth="yes"/>
      <point x="472.0" y="-10.0"/>
      <point x="584" y="65"/>
      <point x="584" y="194" type="curve" smooth="yes"/>
      <point x="584" y="334"/>
      <point x="465" y="373"/>
      <point x="352" y="404" type="curve" smooth="yes"/>
      <point x="247" y="433"/>
      <point x="149" y="452"/>
      <point x="149" y="551" type="curve"/>
      <point x="149.0" y="628.0"/>
      <point x="199.66666666666669" y="682.0"/>
      <point x="301.0" y="682.0" type="curve" smooth="yes"/>
      <point x="400.0" y="682.0"/>
      <point x="468" y="623"/>
      <point x="486" y="527" type="curve"/>
      <point x="547" y="527" type="line"/>
      <point x="547" y="710" type="line"/>
      <point x="494" y="710" type="line"/>
      <point x="494" y="568" type="line"/>
      <point x="502" y="561"/>
      <point x="504" y="571"/>
      <point x="512" y="581" type="curve"/>
      <point x="467" y="690"/>
      <point x="385.0" y="720.0"/>
      <point x="292.0" y="720.0" type="curve" smooth="yes"/>
      <point x="163.0" y="720.0"/>
      <point x="69.0" y="642.0"/>
      <point x="69.0" y="533.0" type="curve"/>
      <point x="69" y="395"/>
      <point x="185" y="359"/>
      <point x="296.0" y="328.0" type="curve" smooth="yes"/>
      <point x="400" y="299"/>
      <point x="499" y="276"/>
      <point x="499" y="174" type="curve" smooth="yes"/>
      <point x="499" y="67"/>
      <point x="432.1372549019608" y="28.0"/>
    </contour>
  </outline>
</glyph>
<glyph name="W.alt" format="1">
  <advance width="1107"/>
  <outline>
    <contour>
      <point x="175" y="710" type="line"/>
      <point x="88" y="710" type="line"/>
      <point x="297" y="0" type="line"/>
      <point x="371" y="0" type="line"/>
      <point x="368" y="32" type="line"/>
    </contour>
    <contour>
      <point x="23" y="710" type="line"/>
      <point x="23" y="678" type="line"/>
      <point x="97" y="678" type="line"/>
      <point x="97" y="678" type="line"/>
      <point x="184" y="678" type="line"/>
      <point x="184" y="678" type="line"/>
      <point x="295" y="678" type="line"/>
      <point x="295" y="710" type="line"/>
    </contour>
    <contour>
      <point x="1019" y="710" type="line"/>
      <point x="980" y="710" type="line"/>
      <point x="773" y="0" type="line"/>
      <point x="809" y="0" type="line"/>
    </contour>
    <contour>
      <point x="1084" y="710" type="line"/>
      <point x="860" y="710" type="line"/>
      <point x="860" y="678" type="line"/>
      <point x="970" y="678" type="line"/>
      <point x="970" y="678" type="line"/>
      <point x="1009" y="678" type="line"/>
      <point x="1009" y="678" type="line"/>
      <point x="1084" y="678" type="line"/>
    </contour>
    <contour>
      <point x="433" y="710" type="line"/>
      <point x="433" y="678" type="line"/>
      <point x="528" y="678" type="line"/>
      <point x="528" y="678" type="line"/>
      <point x="608" y="678" type="line"/>
      <point x="608" y="678" type="line"/>
      <point x="701" y="678" type="line"/>
      <point x="701" y="710" type="line"/>
    </contour>
    <contour>
      <point x="561" y="665" type="line"/>
      <point x="535" y="654" type="line"/>
      <point x="724" y="0" type="line"/>
      <point x="800" y="0" type="line"/>
      <point x="795" y="32" type="line"/>
      <point x="600" y="710" type="line"/>
      <point x="538" y="710" type="line"/>
      <point x="344" y="0" type="line"/>
      <point x="382" y="0" type="line"/>
    </contour>
  </outline>
</glyph>
<glyph name="a.alt" format="1">
  <advance width="573"/>
  <outline>
    <contour>
      <point x="397" y="290" type="line"/>
      <point x="166" y="290"/>
      <point x="46" y="228"/>
      <point x="46" y="123" type="curve" smooth="yes"/>
      <point x="46" y="37"/>
      <point x="121" y="-11"/>
      <point x="215" y="-11" type="curve" smooth="yes"/>
      <point x="306" y="-11"/>
      <point x="363" y="47"/>
      <point x="399" y="109" type="curve"/>
      <point x="428" y="157"/>
      <point x="393" y="140"/>
      <point x="387" y="135" type="curve"/>
      <point x="366" y="88"/>
      <point x="310" y="26"/>
      <point x="243" y="26" type="curve" smooth="yes"/>
      <point x="181" y="26"/>
      <point x="142" y="61"/>
      <point x="142" y="125" type="curve" smooth="yes"/>
      <point x="142" y="209"/>
      <point x="209" y="260"/>
      <point x="395" y="260" type="curve"/>
    </contour>
    <contour>
      <point x="556" y="0" type="line"/>
      <point x="556" y="34" type="line"/>
      <point x="466" y="34" type="line"/>
      <point x="466" y="34" type="line"/>
      <point x="466" y="373" type="line" smooth="yes"/>
      <point x="466" y="502"/>
      <point x="364" y="540"/>
      <point x="271" y="540" type="curve" smooth="yes"/>
      <point x="161" y="540"/>
      <point x="77" y="489"/>
      <point x="66" y="392" type="curve"/>
      <point x="156" y="392" type="line"/>
      <point x="164" y="474"/>
      <point x="202" y="507"/>
      <point x="271" y="507" type="curve" smooth="yes"/>
      <point x="333" y="507"/>
      <point x="380" y="475"/>
      <point x="380" y="370" type="curve" smooth="yes"/>
      <point x="380" y="106" type="line"/>
      <point x="384" y="105" type="line"/>
      <point x="384" y="0" type="line"/>
    </contour>
  </outline>
</glyph>
<glyph name="c.alt" format="1">
  <advance width="610"/>
  <outline>
    <contour>
      <point x="569" y="352" type="line"/>
      <point x="548.901259205" y="471.587507732"/>
      <point x="454" y="550"/>
      <point x="320" y="550" type="curve" smooth="yes"/>
      <point x="176" y="550"/>
      <point x="49.0" y="433.585714286"/>
      <point x="49" y="269" type="curve" smooth="yes"/>
      <point x="49.0" y="105.675090253"/>
      <point x="173" y="-12"/>
      <point x="333" y="-12" type="curve" smooth="yes"/>
      <point x="445" y="-12"/>
      <point x="519" y="42"/>
      <point x="562" y="124" type="curve"/>
      <point x="534" y="144" type="line"/>
      <point x="495" y="76"/>
      <point x="440" y="24"/>
      <point x="340" y="24" type="curve" smooth="yes"/>
      <point x="216" y="24"/>
      <point x="143.0" y="121.593360996"/>
      <point x="143" y="269" type="curve" smooth="yes"/>
      <point x="143.0" y="417.606557377"/>
      <point x="217" y="514"/>
      <point x="320" y="514" type="curve" smooth="yes"/>
      <point x="408" y="514"/>
      <point x="453.903529921" y="444.554702953"/>
      <point x="470" y="352" type="curve"/>
    </contour>
  </outline>
</glyph>
<glyph name="five.old" format="1">
  <advance width="601"/>
  <outline>
    <contour>
      <point x="137" y="225" type="line"/>
      <point x="188" y="477" type="line"/>
      <point x="169" y="454" type="line"/>
      <point x="514" y="454" type="line"/>
      <point x="514" y="528" type="line"/>
      <point x="160" y="528" type="line"/>
      <point x="99" y="225" type="line"/>
      <point x="99" y="202" type="line"/>
      <point x="218" y="202" type="line" smooth="yes"/>
      <point x="385" y="202"/>
      <point x="462" y="151"/>
      <point x="462" y="25" type="curve" smooth="yes"/>
      <point x="462" y="-98"/>
      <point x="395" y="-154"/>
      <point x="312" y="-154" type="curve" smooth="yes"/>
      <point x="218" y="-154"/>
      <point x="158" y="-103"/>
      <point x="147" y="23" type="curve"/>
      <point x="49" y="23" type="line"/>
      <point x="64" y="-121"/>
      <point x="168" y="-192"/>
      <point x="312" y="-192" type="curve" smooth="yes"/>
      <point x="444" y="-192"/>
      <point x="557" y="-116"/>
      <point x="557" y="25" type="curve" smooth="yes"/>
      <point x="557" y="160"/>
      <point x="453" y="241"/>
      <point x="231" y="241" type="curve" smooth="yes"/>
      <point x="119" y="241" type="line"/>
    </contour>
  </outline>
</glyph>
<glyph name="five.oldalt" format="1">
  <advance width="605"/>
  <outline>
    <contour>
      <point x="159" y="232" type="line"/>
      <point x="177" y="477" type="line"/>
      <point x="162" y="456" type="line"/>
      <point x="523" y="456" type="line"/>
      <point x="523" y="528" type="line"/>
      <point x="144" y="528" type="line"/>
      <point x="122" y="247" type="line"/>
      <point x="122" y="221" type="line"/>
      <point x="215" y="208" type="line" smooth="yes"/>
      <point x="371" y="186"/>
      <point x="463" y="138"/>
      <point x="463" y="12" type="curve" smooth="yes"/>
      <point x="463" y="-111"/>
      <point x="397" y="-164"/>
      <point x="314" y="-164" type="curve" smooth="yes"/>
      <point x="225" y="-164"/>
      <point x="164" y="-112"/>
      <point x="148" y="13" type="curve"/>
      <point x="52" y="13" type="line"/>
      <point x="69" y="-131"/>
      <point x="174" y="-202"/>
      <point x="314" y="-202" type="curve" smooth="yes"/>
      <point x="450" y="-202"/>
      <point x="558" y="-128"/>
      <point x="558" y="12" type="curve" smooth="yes"/>
      <point x="558" y="148"/>
      <point x="447" y="213"/>
      <point x="252" y="241" type="curve" smooth="yes"/>
      <point x="141" y="257" type="line"/>
    </contour>
  </outline>
</glyph>
<glyph name="four.alt" format="1">
  <advance width="606"/>
  <outline>
    <contour>
      <point x="245" y="34" type="line"/>
      <point x="245" y="0" type="line"/>
      <point x="576" y="0" type="line"/>
      <point x="576" y="34" type="line"/>
      <point x="457" y="34" type="line"/>
      <point x="457" y="34" type="line"/>
      <point x="365" y="34" type="line"/>
      <point x="365" y="34" type="line"/>
    </contour>
    <contour>
      <point x="365" y="513" type="line"/>
      <point x="365" y="0" type="line"/>
      <point x="457" y="0" type="line"/>
      <point x="457" y="513" type="line"/>
    </contour>
    <contour>
      <point x="35" y="187" type="line"/>
      <point x="586" y="187" type="line"/>
      <point x="586" y="221" type="line"/>
      <point x="55" y="221" type="line"/>
      <point x="57" y="205" type="line"/>
      <point x="463" y="710" type="line"/>
      <point x="362" y="710" type="line"/>
      <point x="35" y="225" type="line"/>
    </contour>
  </outline>
</glyph>
<glyph name="four.old" format="1">
  <advance width="610"/>
  <outline>
    <contour>
      <point x="250" y="-148" type="line"/>
      <point x="250" y="-182" type="line"/>
      <point x="580" y="-182" type="line"/>
      <point x="580" y="-148" type="line"/>
      <point x="461" y="-148" type="line"/>
      <point x="461" y="-148" type="line"/>
      <point x="369" y="-148" type="line"/>
      <point x="369" y="-148" type="line"/>
    </contour>
    <contour>
      <point x="369" y="528" type="line"/>
      <point x="369" y="-182" type="line"/>
      <point x="461" y="-182" type="line"/>
      <point x="461" y="528" type="line"/>
    </contour>
    <contour>
      <point x="30" y="1" type="line"/>
      <point x="590" y="1" type="line"/>
      <point x="590" y="35" type="line"/>
      <point x="51" y="35" type="line"/>
      <point x="57" y="14" type="line"/>
      <point x="392" y="503" type="line"/>
      <point x="427" y="528" type="line"/>
      <point x="366" y="528" type="line"/>
      <point x="30" y="35" type="line"/>
    </contour>
  </outline>
</glyph>
<glyph name="g.alt4" format="1">
  <advance width="641"/>
  <outline>
    <contour>
      <point x="293" y="-11" type="curve" smooth="yes"/>
      <point x="396" y="-11"/>
      <point x="457" y="52"/>
      <point x="524" y="173" type="curve"/>
      <point x="497" y="186" type="line"/>
      <point x="448" y="88"/>
      <point x="386" y="28"/>
      <point x="297" y="28" type="curve" smooth="yes"/>
      <point x="199" y="28"/>
      <point x="143" y="120"/>
      <point x="143" y="261" type="curve" smooth="yes"/>
      <point x="143" y="405"/>
      <point x="199" y="499"/>
      <point x="300" y="499" type="curve" smooth="yes"/>
      <point x="387" y="499"/>
      <point x="451" y="454"/>
      <point x="499" y="357" type="curve"/>
      <point x="528" y="367" type="line"/>
      <point x="465" y="487"/>
      <point x="400" y="538"/>
      <point x="299" y="538" type="curve" smooth="yes"/>
      <point x="148" y="538"/>
      <point x="49" y="425"/>
      <point x="49" y="261" type="curve" smooth="yes"/>
      <point x="49" y="98"/>
      <point x="147" y="-11"/>
    </contour>
    <contour>
      <point x="307" y="-247" type="curve" smooth="yes"/>
      <point x="468" y="-247"/>
      <point x="562" y="-153"/>
      <point x="562" y="19" type="curve" smooth="yes"/>
      <point x="562" y="536" type="line"/>
      <point x="527" y="536" type="line"/>
      <point x="478" y="430" type="line"/>
      <point x="473" y="418" type="line"/>
      <point x="473" y="18" type="line" smooth="yes"/>
      <point x="473" y="-141"/>
      <point x="406" y="-208"/>
      <point x="307" y="-208" type="curve" smooth="yes"/>
      <point x="215" y="-208"/>
      <point x="168" y="-160"/>
      <point x="156" y="-80" type="curve"/>
      <point x="64" y="-80" type="line"/>
      <point x="76" y="-181"/>
      <point x="161" y="-247"/>
    </contour>
  </outline>
</glyph>
<glyph name="j.alt" format="1">
  <advance width="344"/>
  <outline>
    <contour>
      <point x="179" y="638" type="curve" smooth="yes"/>
      <point x="213" y="638"/>
      <point x="239" y="661"/>
      <point x="239" y="697" type="curve" smooth="yes"/>
      <point x="239" y="734"/>
      <point x="213" y="756"/>
      <point x="179" y="756" type="curve" smooth="yes"/>
      <point x="144" y="756"/>
      <point x="119" y="734"/>
      <point x="119" y="697" type="curve" smooth="yes"/>
      <point x="119" y="661"/>
      <point x="144" y="638"/>
    </contour>
    <contour>
      <point x="226" y="-3" type="curve" smooth="yes"/>
      <point x="226" y="528" type="line"/>
      <point x="38" y="528" type="line"/>
      <point x="38" y="493" type="line"/>
      <point x="137" y="493" type="line"/>
      <point x="137" y="493" type="line"/>
      <point x="137" y="-5" type="line" smooth="yes"/>
      <point x="137" y="-146"/>
      <point x="92" y="-206"/>
      <point x="21" y="-206" type="curve" smooth="yes"/>
      <point x="-42" y="-206"/>
      <point x="-70" y="-162"/>
      <point x="-80" y="-79" type="curve"/>
      <point x="-172" y="-79" type="line"/>
      <point x="-161" y="-181"/>
      <point x="-95" y="-245"/>
      <point x="21" y="-245" type="curve" smooth="yes"/>
      <point x="150" y="-245"/>
      <point x="226" y="-158"/>
    </contour>
  </outline>
</glyph>
<glyph name="k.alt" format="1">
  <advance width="637"/>
  <outline>
    <contour>
      <point x="43" y="20" type="line"/>
      <point x="43" y="0" type="line"/>
      <point x="288" y="0" type="line"/>
      <point x="288" y="20" type="line"/>
      <point x="218" y="20" type="line"/>
      <point x="218" y="20" type="line"/>
      <point x="133" y="20" type="line"/>
      <point x="133" y="20" type="line"/>
    </contour>
    <contour>
      <point x="43" y="750" type="line"/>
      <point x="43" y="730" type="line"/>
      <point x="133" y="730" type="line"/>
      <point x="133" y="730" type="line"/>
      <point x="133" y="0" type="line"/>
      <point x="218" y="0" type="line"/>
      <point x="218" y="750" type="line"/>
    </contour>
    <contour>
      <point x="633" y="20" type="line"/>
      <point x="574" y="20" type="line"/>
      <point x="574" y="20" type="line"/>
      <point x="464" y="20" type="line"/>
      <point x="464" y="20" type="line"/>
      <point x="378" y="20" type="line"/>
      <point x="378" y="0" type="line"/>
      <point x="633" y="0" type="line"/>
    </contour>
    <contour>
      <point x="250" y="288" type="line"/>
      <point x="480" y="0" type="line"/>
      <point x="558" y="0" type="line"/>
      <point x="583" y="11" type="line"/>
      <point x="334" y="309" type="line"/>
    </contour>
    <contour>
      <point x="599" y="508" type="line"/>
      <point x="599" y="528" type="line"/>
      <point x="363" y="528" type="line"/>
      <point x="363" y="508" type="line"/>
      <point x="489" y="508" type="line"/>
      <point x="489" y="508" type="line"/>
      <point x="519" y="508" type="line"/>
      <point x="519" y="508" type="line"/>
    </contour>
    <contour>
      <point x="289" y="260" type="line"/>
      <point x="528" y="518" type="line"/>
      <point x="516" y="528" type="line"/>
      <point x="506" y="528" type="line"/>
      <point x="287" y="288" type="line"/>
    </contour>
    <contour>
      <point x="316" y="281" type="line"/>
      <point x="316" y="301" type="line"/>
      <point x="162" y="301" type="line"/>
      <point x="162" y="281" type="line"/>
    </contour>
  </outline>
</glyph>
<glyph name="one.alt" format="1">
  <advance width="433"/>
  <outline>
    <contour>
      <point x="185" y="698" type="line"/>
      <point x="185" y="0" type="line"/>
      <point x="278" y="0" type="line"/>
      <point x="278" y="710" type="line"/>
      <point x="194" y="710" type="line"/>
      <point x="56" y="679" type="line"/>
      <point x="56" y="641" type="line"/>
      <point x="249" y="678" type="line"/>
    </contour>
  </outline>
</glyph>
<glyph name="one.old" format="1">
  <advance width="464"/>
  <outline>
    <contour>
      <point x="66" y="34" type="line"/>
      <point x="66" y="0" type="line"/>
      <point x="427" y="0" type="line"/>
      <point x="427" y="34" type="line"/>
      <point x="292" y="34" type="line"/>
      <point x="292" y="34" type="line"/>
      <point x="200" y="34" type="line"/>
      <point x="200" y="34" type="line"/>
    </contour>
    <contour>
      <point x="200" y="516" type="line"/>
      <point x="200" y="0" type="line"/>
      <point x="292" y="0" type="line"/>
      <point x="292" y="528" type="line"/>
      <point x="209" y="528" type="line"/>
      <point x="56" y="496" type="line"/>
      <point x="56" y="459" type="line"/>
      <point x="256" y="497" type="line"/>
    </contour>
  </outline>
</glyph>
<glyph name="s.srf" format="1">
  <advance width="512"/>
  <outline>
    <contour>
      <point x="278.0" y="-10.0" type="curve" smooth="yes"/>
      <point x="393.0" y="-10.0"/>
      <point x="467" y="53"/>
      <point x="467" y="148" type="curve" smooth="yes"/>
      <point x="467" y="255"/>
      <point x="376" y="283"/>
      <point x="289" y="306" type="curve" smooth="yes"/>
      <point x="208" y="327"/>
      <point x="131.0" y="340.0"/>
      <point x="131" y="416" type="curve" smooth="yes"/>
      <point x="131.0" y="471.0"/>
      <point x="164.634615385" y="513.0"/>
      <point x="237.0" y="513.0" type="curve" smooth="yes"/>
      <point x="309.0" y="513.0"/>
      <point x="357.0" y="468.0"/>
      <point x="383.0" y="385.0" type="curve"/>
      <point x="432.0" y="385.0" type="line"/>
      <point x="432.0" y="542.0" type="line"/>
      <point x="396.0" y="542.0" type="line"/>
      <point x="383.0" y="449.0" type="line"/>
      <point x="388.0" y="438.0"/>
      <point x="391.0" y="420.0"/>
      <point x="401.0" y="415.0" type="curve"/>
      <point x="387.0" y="489.0"/>
      <point x="325.0" y="550.0"/>
      <point x="232.0" y="550.0" type="curve" smooth="yes"/>
      <point x="129.0" y="550.0"/>
      <point x="57" y="488"/>
      <point x="57.0" y="398.0" type="curve" smooth="yes"/>
      <point x="57" y="286"/>
      <point x="152" y="256"/>
      <point x="240.0" y="233.0" type="curve" smooth="yes"/>
      <point x="319" y="212"/>
      <point x="391" y="197"/>
      <point x="391" y="126" type="curve" smooth="yes"/>
      <point x="391" y="59"/>
      <point x="343.216666667" y="27.0"/>
      <point x="269.0" y="27.0" type="curve" smooth="yes"/>
      <point x="179.0" y="27.0"/>
      <point x="115.0" y="79.0"/>
      <point x="89.0" y="175.0" type="curve"/>
      <point x="33.0" y="175.0" type="line"/>
      <point x="33.0" y="0.0" type="line"/>
      <point x="71.0" y="0.0" type="line"/>
      <point x="83.0" y="131.0" type="line"/>
      <point x="78.0" y="139.0"/>
      <point x="75.0" y="143.0"/>
      <point x="65.0" y="141.0" type="curve"/>
      <point x="99.0" y="28.0"/>
      <point x="195.0" y="-10.0"/>
    </contour>
  </outline>
</glyph>
<glyph name="seven.alt2" format="1">
  <advance width="568"/>
  <outline>
    <contour>
      <point x="215" y="0" type="line"/>
      <point x="209" y="376"/>
      <point x="487" y="403"/>
      <point x="487" y="637" type="curve" smooth="yes"/>
      <point x="487" y="677" type="line"/>
      <point x="506" y="636" type="line"/>
      <point x="108" y="636" type="line"/>
      <point x="108" y="636" type="line"/>
      <point x="108" y="504" type="line"/>
      <point x="71" y="504" type="line"/>
      <point x="71" y="710" type="line"/>
      <point x="526" y="710" type="line"/>
      <point x="526" y="658" type="line" smooth="yes"/>
      <point x="526" y="392"/>
      <point x="303" y="385"/>
      <point x="313" y="0" type="curve"/>
    </contour>
  </outline>
</glyph>
<glyph name="seven.oldalt2" format="1">
  <advance width="568"/>
  <outline>
    <contour>
      <point x="209" y="-182" type="line"/>
      <point x="203" y="194"/>
      <point x="479" y="221"/>
      <point x="479" y="452" type="curve" smooth="yes"/>
      <point x="479" y="495" type="line"/>
      <point x="498" y="454" type="line"/>
      <point x="105" y="454" type="line"/>
      <point x="105" y="454" type="line"/>
      <point x="105" y="323" type="line"/>
      <point x="69" y="323" type="line"/>
      <point x="69" y="528" type="line"/>
      <point x="517" y="528" type="line"/>
      <point x="517" y="476" type="line" smooth="yes"/>
      <point x="517" y="210"/>
      <point x="296" y="203"/>
      <point x="306" y="-182" type="curve"/>
    </contour>
  </outline>
</glyph>
<glyph name="two.alt" format="1">
  <advance width="598"/>
  <outline>
    <contour>
      <point x="65" y="24" type="curve"/>
      <point x="76" y="40"/>
      <point x="87" y="58"/>
      <point x="99" y="72" type="curve"/>
      <point x="512" y="72" type="line"/>
      <point x="512" y="72" type="line"/>
      <point x="512" y="205" type="line"/>
      <point x="549" y="205" type="line"/>
      <point x="549" y="0" type="line"/>
      <point x="34" y="0" type="line"/>
      <point x="34" y="44" type="line"/>
      <point x="268" y="213"/>
      <point x="417" y="349"/>
      <point x="417" y="534" type="curve" smooth="yes"/>
      <point x="417" y="626"/>
      <point x="367" y="682"/>
      <point x="296" y="682" type="curve" smooth="yes"/>
      <point x="208" y="682"/>
      <point x="168" y="618"/>
      <point x="146" y="513" type="curve"/>
      <point x="50" y="513" type="line"/>
      <point x="72" y="638"/>
      <point x="159" y="720"/>
      <point x="296" y="720" type="curve" smooth="yes"/>
      <point x="427" y="720"/>
      <point x="513" y="646"/>
      <point x="513" y="533" type="curve" smooth="yes"/>
      <point x="513" y="363"/>
      <point x="307" y="201"/>
    </contour>
  </outline>
</glyph>
<glyph name="two.oldalt" format="1">
  <advance width="592"/>
  <outline>
    <contour>
      <point x="93" y="25" type="curve"/>
      <point x="102" y="37"/>
      <point x="121" y="67"/>
      <point x="152" y="72" type="curve"/>
      <point x="493" y="72" type="line"/>
      <point x="493" y="72" type="line"/>
      <point x="493" y="164" type="line"/>
      <point x="530" y="164" type="line"/>
      <point x="530" y="0" type="line"/>
      <point x="64" y="0" type="line"/>
      <point x="64" y="1"/>
      <point x="64" y="45"/>
      <point x="64" y="46" type="curve"/>
      <point x="272" y="160"/>
      <point x="400" y="214"/>
      <point x="400" y="377" type="curve" smooth="yes"/>
      <point x="400" y="459"/>
      <point x="361" y="499"/>
      <point x="298" y="499" type="curve" smooth="yes"/>
      <point x="224" y="499"/>
      <point x="188" y="443"/>
      <point x="170" y="343" type="curve"/>
      <point x="75" y="343" type="line"/>
      <point x="93" y="464"/>
      <point x="174" y="537"/>
      <point x="298" y="537" type="curve" smooth="yes"/>
      <point x="418" y="537"/>
      <point x="496" y="478"/>
      <point x="496" y="378" type="curve" smooth="yes"/>
      <point x="496" y="222"/>
      <point x="317" y="148"/>
    </contour>
  </outline>
</glyph>
<glyph name="zero.old" format="1">
  <advance width="637"/>
  <outline>
    <contour>
      <point x="319" y="537" type="curve"/>
      <point x="165" y="537"/>
      <point x="41" y="422"/>
      <point x="41" y="263" type="curve" smooth="yes"/>
      <point x="41" y="104"/>
      <point x="165" y="-12"/>
      <point x="319" y="-12" type="curve"/>
      <point x="472" y="-12"/>
      <point x="596" y="104"/>
      <point x="596" y="262" type="curve" smooth="yes"/>
      <point x="596" y="421"/>
      <point x="472" y="537"/>
    </contour>
    <contour>
      <point x="319" y="498" type="curve"/>
      <point x="424" y="498"/>
      <point x="500" y="404"/>
      <point x="500" y="262" type="curve" smooth="yes"/>
      <point x="500" y="120"/>
      <point x="424" y="27"/>
      <point x="319" y="27" type="curve"/>
      <point x="213" y="27"/>
      <point x="137" y="121"/>
      <point x="137" y="263" type="curve" smooth="yes"/>
      <point x="137" y="405"/>
      <point x="213" y="498"/>
    </contour>
  </outline>
</glyph>
